<svg width="24" height="24" viewBox="0 0 24 24" fill="none" xmlns="http://www.w3.org/2000/svg">
<path d="M23.9985 12.0001C23.9985 11.2248 23.3296 9.80821 21.8605 8.53134C21.022 7.81004 20.0664 7.23742 19.0349 6.83821C19.0006 6.82538 18.9627 6.82576 18.9287 6.83927C18.8946 6.85279 18.8668 6.87847 18.8507 6.91134C18.8436 6.92493 18.8366 6.93806 18.8286 6.95165L18.3791 7.69696C17.621 9.00601 17.2221 10.492 17.2227 12.0047C17.2232 13.5175 17.6233 15.0032 18.3824 16.3117L18.3932 16.3299L18.8028 17.0799C18.8246 17.1198 18.86 17.1504 18.9026 17.1661C18.9452 17.1817 18.992 17.1815 19.0344 17.1652C22.4811 15.8167 23.9985 13.1949 23.9985 12.0001ZM19.596 11.9935C19.4406 12.0138 19.2828 11.985 19.1447 11.9111C19.0066 11.8371 18.8951 11.7218 18.8259 11.5813C18.7567 11.4408 18.7332 11.2821 18.7588 11.1275C18.7843 10.973 18.8576 10.8303 18.9684 10.7195C19.0792 10.6088 19.2218 10.5355 19.3764 10.5099C19.5309 10.4844 19.6896 10.5078 19.8301 10.5771C19.9707 10.6463 20.086 10.7578 20.1599 10.8959C20.2339 11.034 20.2627 11.1918 20.2424 11.3471C20.2209 11.511 20.1459 11.6633 20.029 11.7802C19.9121 11.8971 19.7599 11.9721 19.596 11.9935Z" fill="white"/>
<path d="M15.724 12.0001C15.7234 10.2218 16.1937 8.47508 17.0871 6.93756L17.0928 6.92772L17.3093 6.56818C17.325 6.54257 17.3342 6.51357 17.3364 6.48363C17.3385 6.45368 17.3334 6.42367 17.3215 6.39611C17.3096 6.36855 17.2912 6.34425 17.268 6.32525C17.2447 6.30625 17.2173 6.29311 17.1879 6.28693C16.5811 6.15997 15.9662 6.07554 15.3476 6.03428C15.2747 6.02957 15.2047 6.00348 15.1465 5.95928C14.2428 5.27209 12.4512 4.07022 10.6249 3.76131C10.5001 3.74063 10.3721 3.75185 10.2528 3.79393C10.1336 3.83601 10.0268 3.90758 9.94264 4.00198C9.85843 4.09639 9.79948 4.21055 9.77125 4.33386C9.74302 4.45717 9.74644 4.58562 9.78119 4.70725L10.279 6.44959C10.2919 6.49474 10.2875 6.54311 10.2665 6.58512C10.2455 6.62713 10.2095 6.65973 10.1656 6.67647C8.43822 7.31818 6.95041 8.49287 5.86525 9.38818C5.79884 9.44254 5.71579 9.47248 5.62997 9.47299C5.54415 9.4735 5.46075 9.44456 5.39369 9.391C5.24619 9.27381 5.09478 9.15834 4.93947 9.04459C3.08135 7.68756 0.898377 7.50897 0.806502 7.5024C0.689852 7.49359 0.572759 7.51219 0.464579 7.55671C0.356399 7.60122 0.260133 7.67043 0.183474 7.7588C0.106816 7.84716 0.0518903 7.95223 0.0230879 8.06561C-0.00571443 8.17899 -0.0075952 8.29754 0.017596 8.41178C0.0372835 8.50225 0.448377 10.3191 1.50353 11.7685C1.55103 11.8335 1.57663 11.9118 1.57663 11.9923C1.57663 12.0728 1.55103 12.1512 1.50353 12.2162C0.448377 13.6651 0.0372835 15.4824 0.017596 15.5729C-0.0075952 15.6871 -0.00571443 15.8057 0.0230879 15.919C0.0518903 16.0324 0.106816 16.1375 0.183474 16.2259C0.260133 16.3142 0.356399 16.3834 0.464579 16.4279C0.572759 16.4725 0.689852 16.4911 0.806502 16.4822C0.900252 16.4757 3.08135 16.2947 4.93713 14.941C5.08869 14.8297 5.23666 14.7169 5.38103 14.6026C5.44814 14.5491 5.53157 14.5202 5.61739 14.5208C5.70322 14.5214 5.78624 14.5514 5.8526 14.6058C6.94244 15.5054 8.43306 16.6815 10.1651 17.3246C10.2089 17.3413 10.2448 17.3738 10.2658 17.4157C10.2868 17.4577 10.2913 17.5059 10.2785 17.551L9.77885 19.2938C9.7441 19.4154 9.74068 19.5439 9.7689 19.6672C9.79713 19.7905 9.85609 19.9047 9.94029 19.9991C10.0245 20.0935 10.1312 20.165 10.2505 20.2071C10.3698 20.2492 10.4978 20.2604 10.6226 20.2397C11.427 20.1038 13.0545 19.6369 15.1249 18.0446C15.1841 17.9995 15.2551 17.9726 15.3293 17.9672C15.9471 17.9268 16.5614 17.8438 17.1678 17.7188C17.1964 17.7128 17.2232 17.7002 17.2461 17.682C17.2689 17.6637 17.2872 17.6404 17.2995 17.6139C17.3117 17.5873 17.3176 17.5583 17.3166 17.529C17.3157 17.4998 17.3078 17.4712 17.2938 17.4455L17.0824 17.0569C16.1916 15.5206 15.7229 13.776 15.724 12.0001Z" fill="white"/>
</svg>
