<svg width="24" height="24" viewBox="0 0 24 24" fill="none" xmlns="http://www.w3.org/2000/svg">
<path d="M23.9985 11.9998C23.9985 11.2245 23.3296 9.80797 21.8605 8.53109C21.022 7.8098 20.0664 7.23718 19.0349 6.83797C19.0006 6.82514 18.9627 6.82552 18.9287 6.83903C18.8946 6.85254 18.8668 6.87823 18.8507 6.91109C18.8436 6.92469 18.8366 6.93781 18.8286 6.95141L18.3791 7.69672C17.621 9.00576 17.2221 10.4918 17.2227 12.0045C17.2232 13.5172 17.6233 15.0029 18.3824 16.3114L18.3932 16.3297L18.8028 17.0797C18.8246 17.1195 18.86 17.1501 18.9026 17.1658C18.9452 17.1815 18.992 17.1812 19.0344 17.165C22.4811 15.8164 23.9985 13.1947 23.9985 11.9998ZM19.596 11.9933C19.4406 12.0136 19.2828 11.9848 19.1447 11.9108C19.0066 11.8369 18.8951 11.7216 18.8259 11.581C18.7567 11.4405 18.7332 11.2818 18.7588 11.1273C18.7843 10.9727 18.8576 10.8301 18.9684 10.7193C19.0792 10.6085 19.2218 10.5352 19.3764 10.5097C19.5309 10.4841 19.6896 10.5076 19.8301 10.5768C19.9707 10.646 20.086 10.7575 20.1599 10.8956C20.2339 11.0338 20.2627 11.1915 20.2424 11.3469C20.2209 11.5108 20.1459 11.663 20.029 11.7799C19.9121 11.8968 19.7599 11.9718 19.596 11.9933Z" fill="black"/>
<path d="M15.724 11.9998C15.7234 10.2216 16.1937 8.47484 17.0871 6.93732L17.0928 6.92747L17.3093 6.56794C17.325 6.54233 17.3342 6.51333 17.3364 6.48338C17.3385 6.45344 17.3334 6.42343 17.3215 6.39587C17.3096 6.36831 17.2912 6.34401 17.268 6.32501C17.2447 6.30601 17.2173 6.29287 17.1879 6.28669C16.5811 6.15972 15.9662 6.0753 15.3476 6.03403C15.2747 6.02932 15.2047 6.00324 15.1465 5.95903C14.2428 5.27185 12.4512 4.06997 10.6249 3.76107C10.5001 3.74039 10.3721 3.75161 10.2528 3.79369C10.1336 3.83577 10.0268 3.90734 9.94264 4.00174C9.85843 4.09614 9.79948 4.21031 9.77125 4.33362C9.74302 4.45693 9.74644 4.58537 9.78119 4.707L10.279 6.44935C10.2919 6.4945 10.2875 6.54287 10.2665 6.58488C10.2455 6.62689 10.2095 6.65949 10.1656 6.67622C8.43822 7.31794 6.95041 8.49263 5.86525 9.38794C5.79884 9.4423 5.71579 9.47223 5.62997 9.47275C5.54415 9.47326 5.46075 9.44432 5.39369 9.39075C5.24619 9.27357 5.09478 9.1581 4.93947 9.04435C3.08135 7.68732 0.898377 7.50872 0.806502 7.50216C0.689852 7.49335 0.572758 7.51194 0.464579 7.55646C0.356399 7.60098 0.260133 7.67019 0.183474 7.75855C0.106816 7.84692 0.0518903 7.95199 0.0230879 8.06537C-0.00571443 8.17875 -0.0075952 8.2973 0.017596 8.41153C0.0372835 8.502 0.448377 10.3189 1.50353 11.7683C1.55103 11.8332 1.57663 11.9116 1.57663 11.9921C1.57663 12.0726 1.55103 12.1509 1.50353 12.2159C0.448377 13.6648 0.0372835 15.4822 0.017596 15.5726C-0.0075952 15.6869 -0.00571443 15.8054 0.0230879 15.9188C0.0518903 16.0322 0.106816 16.1372 0.183474 16.2256C0.260133 16.314 0.356399 16.3832 0.464579 16.4277C0.572758 16.4722 0.689852 16.4908 0.806502 16.482C0.900252 16.4754 3.08135 16.2945 4.93713 14.9408C5.08869 14.8295 5.23666 14.7167 5.38103 14.6023C5.44814 14.5488 5.53157 14.52 5.61739 14.5206C5.70322 14.5212 5.78624 14.5512 5.8526 14.6056C6.94244 15.5051 8.43306 16.6812 10.1651 17.3243C10.2089 17.3411 10.2448 17.3736 10.2658 17.4155C10.2868 17.4574 10.2913 17.5057 10.2785 17.5508L9.77885 19.2936C9.7441 19.4152 9.74068 19.5436 9.7689 19.667C9.79713 19.7903 9.85609 19.9044 9.94029 19.9988C10.0245 20.0932 10.1312 20.1648 10.2505 20.2069C10.3698 20.249 10.4978 20.2602 10.6226 20.2395C11.427 20.1036 13.0545 19.6367 15.1249 18.0443C15.1841 17.9992 15.2551 17.9723 15.3293 17.967C15.9471 17.9266 16.5614 17.8436 17.1678 17.7186C17.1964 17.7126 17.2232 17.6999 17.2461 17.6817C17.2689 17.6635 17.2872 17.6402 17.2995 17.6136C17.3117 17.5871 17.3176 17.558 17.3166 17.5288C17.3157 17.4996 17.3078 17.471 17.2938 17.4453L17.0824 17.0567C16.1916 15.5204 15.7229 13.7757 15.724 11.9998Z" fill="black"/>
</svg>
