<svg width="55" height="44" viewBox="0 0 55 44" fill="none" xmlns="http://www.w3.org/2000/svg">
<path d="M57.5014 26.3863C57.5014 24.6581 56.0104 21.5007 52.7359 18.6546C50.867 17.0469 48.7369 15.7705 46.4378 14.8807C46.3613 14.8521 46.2769 14.853 46.2011 14.8831C46.1252 14.9132 46.0632 14.9705 46.0272 15.0437C46.0115 15.074 45.9958 15.1033 45.9781 15.1336L44.9761 16.7948C43.2863 19.7126 42.3972 23.0249 42.3984 26.3966C42.3997 29.7684 43.2914 33.08 44.9834 35.9965L45.0074 36.0372L45.9206 37.709C45.969 37.7977 46.0481 37.8659 46.143 37.9009C46.2379 37.9359 46.3423 37.9352 46.4367 37.8991C54.1193 34.8932 57.5014 29.0495 57.5014 26.3863ZM47.6884 26.3716C47.3422 26.4169 46.9905 26.3526 46.6827 26.1878C46.3748 26.0231 46.1263 25.766 45.972 25.4528C45.8177 25.1395 45.7654 24.7859 45.8223 24.4414C45.8793 24.0969 46.0427 23.7789 46.2896 23.532C46.5365 23.2851 46.8545 23.1217 47.199 23.0647C47.5435 23.0078 47.8972 23.0601 48.2104 23.2144C48.5236 23.3687 48.7807 23.6172 48.9454 23.9251C49.1102 24.2329 49.1745 24.5846 49.1292 24.9308C49.0814 25.2962 48.9143 25.6356 48.6537 25.8961C48.3932 26.1567 48.0538 26.3238 47.6884 26.3716Z" fill="white" fill-opacity="0.36"/>
<path d="M39.048 26.3862C39.0465 22.4226 40.0948 18.5292 42.0863 15.1022L42.0988 15.0802L42.5815 14.2789C42.6164 14.2218 42.6371 14.1571 42.6418 14.0904C42.6465 14.0236 42.6351 13.9567 42.6086 13.8953C42.5821 13.8339 42.5412 13.7797 42.4894 13.7374C42.4376 13.695 42.3764 13.6657 42.3109 13.652C40.9584 13.369 39.5877 13.1808 38.209 13.0888C38.0464 13.0783 37.8905 13.0202 37.7607 12.9216C35.7463 11.3899 31.753 8.71102 27.6824 8.02249C27.4042 7.9764 27.1189 8.00141 26.853 8.0952C26.5871 8.189 26.3493 8.34852 26.1616 8.55894C25.9739 8.76936 25.8425 9.02382 25.7796 9.29867C25.7167 9.57352 25.7243 9.85982 25.8017 10.1309L26.9113 14.0145C26.9402 14.1152 26.9302 14.223 26.8834 14.3166C26.8366 14.4103 26.7563 14.4829 26.6585 14.5202C22.8083 15.9506 19.4921 18.5689 17.0733 20.5645C16.9253 20.6857 16.7402 20.7524 16.5489 20.7535C16.3576 20.7547 16.1717 20.6901 16.0222 20.5708C15.6935 20.3096 15.356 20.0522 15.0098 19.7986C10.8682 16.7739 6.00243 16.3758 5.79765 16.3612C5.53764 16.3415 5.27665 16.383 5.03552 16.4822C4.79439 16.5815 4.57982 16.7357 4.40895 16.9327C4.23809 17.1296 4.11566 17.3638 4.05146 17.6165C3.98726 17.8693 3.98307 18.1335 4.03922 18.3881C4.0831 18.5898 4.99941 22.6395 7.35129 25.8701C7.45717 26.0149 7.51423 26.1896 7.51423 26.369C7.51423 26.5484 7.45717 26.7231 7.35129 26.8679C4.99941 30.0974 4.0831 34.1482 4.03922 34.3498C3.98307 34.6045 3.98726 34.8687 4.05146 35.1214C4.11566 35.3741 4.23809 35.6083 4.40895 35.8053C4.57982 36.0022 4.79439 36.1565 5.03552 36.2557C5.27665 36.355 5.53764 36.3964 5.79765 36.3768C6.00661 36.3621 10.8682 35.9588 15.0046 32.9414C15.3424 32.6934 15.6722 32.442 15.994 32.187C16.1436 32.0678 16.3296 32.0035 16.5209 32.0048C16.7122 32.0061 16.8972 32.073 17.0451 32.1944C19.4743 34.1994 22.7968 36.8208 26.6574 38.2543C26.755 38.2916 26.8351 38.3641 26.8819 38.4575C26.9287 38.5509 26.9389 38.6585 26.9103 38.759L25.7965 42.6436C25.7191 42.9147 25.7114 43.201 25.7744 43.4758C25.8373 43.7507 25.9687 44.0052 26.1564 44.2156C26.3441 44.426 26.5819 44.5855 26.8478 44.6793C27.1137 44.7731 27.399 44.7981 27.6772 44.752C29.4701 44.449 33.0977 43.4084 37.7127 39.8591C37.8445 39.7586 38.0028 39.6986 38.1682 39.6868C39.5453 39.5967 40.9144 39.4117 42.266 39.133C42.3298 39.1196 42.3896 39.0915 42.4405 39.0509C42.4915 39.0102 42.5323 38.9583 42.5596 38.8991C42.5869 38.8399 42.6 38.7751 42.5978 38.71C42.5957 38.6448 42.5783 38.5811 42.547 38.5239L42.0758 37.6577C40.0902 34.2333 39.0455 30.3447 39.048 26.3862Z" fill="white" fill-opacity="0.36"/>
<path d="M22.9511 7.88666C22.9511 7.14537 22.3115 5.79098 20.907 4.57015C20.1053 3.88051 19.1916 3.33301 18.2053 2.95133C18.1725 2.93906 18.1364 2.93942 18.1038 2.95234C18.0713 2.96526 18.0447 2.98982 18.0292 3.02124C18.0225 3.03424 18.0158 3.04679 18.0081 3.05979L17.5783 3.77239C16.8535 5.02398 16.4721 6.44479 16.4727 7.89111C16.4732 9.33743 16.8557 10.758 17.5815 12.009L17.5918 12.0265L17.9835 12.7436C18.0043 12.7816 18.0382 12.8109 18.0789 12.8259C18.1196 12.8409 18.1644 12.8406 18.2049 12.8251C21.5003 11.5357 22.9511 9.02906 22.9511 7.88666ZM18.7418 7.88038C18.5933 7.89981 18.4424 7.87224 18.3104 7.80155C18.1783 7.73086 18.0717 7.6206 18.0055 7.48624C17.9394 7.35188 17.9169 7.20017 17.9413 7.05239C17.9658 6.90462 18.0359 6.76821 18.1418 6.6623C18.2477 6.55639 18.3841 6.4863 18.5319 6.46187C18.6796 6.43744 18.8313 6.4599 18.9657 6.52609C19.1001 6.59227 19.2103 6.69887 19.281 6.83092C19.3517 6.96297 19.3793 7.11383 19.3598 7.26235C19.3393 7.41908 19.2676 7.56464 19.1559 7.67641C19.0441 7.78818 18.8985 7.85989 18.7418 7.88038Z" fill="white" fill-opacity="0.36"/>
<path d="M15.0339 7.88681C15.0333 6.18659 15.483 4.51654 16.3372 3.0465L16.3426 3.03708L16.5496 2.69333C16.5646 2.66884 16.5735 2.64112 16.5755 2.61249C16.5775 2.58386 16.5726 2.55516 16.5613 2.52881C16.5499 2.50246 16.5323 2.47923 16.5101 2.46106C16.4879 2.4429 16.4616 2.43033 16.4336 2.42443C15.8534 2.30303 15.2654 2.22231 14.674 2.18286C14.6043 2.17835 14.5374 2.15341 14.4818 2.11115C13.6177 1.45412 11.9047 0.304995 10.1586 0.00964614C10.0393 -0.0101251 9.91693 0.000605159 9.80287 0.0408382C9.68881 0.0810713 9.58678 0.1495 9.50627 0.239758C9.42577 0.330017 9.36939 0.439172 9.34241 0.557069C9.31542 0.674966 9.31869 0.797774 9.35191 0.914068L9.82788 2.57994C9.84025 2.62311 9.83598 2.66936 9.81589 2.70953C9.79581 2.74969 9.76138 2.78086 9.71942 2.79686C8.06788 3.41042 6.64537 4.53355 5.60784 5.38957C5.54434 5.44154 5.46493 5.47016 5.38288 5.47065C5.30082 5.47114 5.22108 5.44347 5.15697 5.39226C5.01594 5.28021 4.87118 5.16981 4.72269 5.06105C2.94611 3.76358 0.858949 3.59282 0.771106 3.58655C0.659576 3.57812 0.547621 3.5959 0.444189 3.63847C0.340757 3.68103 0.248716 3.7472 0.175422 3.83169C0.102128 3.91618 0.0496129 4.01664 0.0220747 4.12504C-0.00546363 4.23345 -0.00726186 4.34679 0.0168237 4.45601C0.0356472 4.54251 0.428699 6.27965 1.43755 7.66541C1.48296 7.72752 1.50744 7.80247 1.50744 7.87942C1.50744 7.95636 1.48296 8.03131 1.43755 8.09342C0.428699 9.47874 0.0356472 11.2163 0.0168237 11.3028C-0.00726186 11.412 -0.00546363 11.5254 0.0220747 11.6338C0.0496129 11.7422 0.102128 11.8427 0.175422 11.9271C0.248716 12.0116 0.340757 12.0778 0.444189 12.1204C0.547621 12.1629 0.659576 12.1807 0.771106 12.1723C0.860742 12.166 2.94611 11.993 4.72045 10.6987C4.86536 10.5923 5.00683 10.4844 5.14487 10.3751C5.20903 10.3239 5.2888 10.2964 5.37086 10.2969C5.45291 10.2975 5.53229 10.3262 5.59574 10.3782C6.63775 11.2383 8.06295 12.3628 9.71897 12.9777C9.76083 12.9937 9.79519 13.0247 9.81526 13.0648C9.83534 13.1049 9.83968 13.151 9.82743 13.1941L9.34967 14.8605C9.31645 14.9767 9.31318 15.0996 9.34017 15.2175C9.36715 15.3353 9.42352 15.4445 9.50403 15.5348C9.58454 15.625 9.68657 15.6934 9.80063 15.7337C9.91469 15.7739 10.0371 15.7846 10.1564 15.7649C10.9255 15.6349 12.4815 15.1885 14.4611 13.6661C14.5177 13.6229 14.5856 13.5972 14.6565 13.5921C15.2472 13.5535 15.8345 13.4741 16.4143 13.3546C16.4417 13.3488 16.4673 13.3368 16.4892 13.3193C16.511 13.3019 16.5285 13.2796 16.5402 13.2542C16.552 13.2288 16.5576 13.2011 16.5566 13.1731C16.5557 13.1452 16.5482 13.1178 16.5349 13.0933L16.3327 12.7218C15.481 11.2528 15.0329 9.5848 15.0339 7.88681Z" fill="white" fill-opacity="0.36"/>
<path d="M50.0016 5.46754C50.0016 5.04766 49.6393 4.2805 48.8437 3.58899C48.3896 3.19837 47.8721 2.88825 47.3135 2.67206C47.2949 2.66511 47.2744 2.66531 47.2559 2.67263C47.2375 2.67995 47.2225 2.69386 47.2137 2.71166C47.2099 2.71902 47.2061 2.72613 47.2018 2.73349L46.9583 3.13713C46.5478 3.84606 46.3317 4.65083 46.332 5.47006C46.3323 6.28929 46.549 7.0939 46.9601 7.80252L46.9659 7.81242L47.1878 8.21859C47.1996 8.24016 47.2188 8.25674 47.2418 8.26523C47.2649 8.27373 47.2903 8.27357 47.3132 8.26479C49.1798 7.53444 50.0016 6.11462 50.0016 5.46754ZM47.6173 5.46398C47.5332 5.47499 47.4478 5.45937 47.373 5.41933C47.2982 5.37929 47.2378 5.31684 47.2003 5.24073C47.1628 5.16463 47.1501 5.07869 47.1639 4.99499C47.1778 4.91129 47.2175 4.83402 47.2775 4.77403C47.3374 4.71405 47.4147 4.67435 47.4984 4.66051C47.5821 4.64667 47.668 4.65939 47.7441 4.69688C47.8203 4.73437 47.8827 4.79475 47.9227 4.86954C47.9628 4.94434 47.9784 5.02979 47.9674 5.11391C47.9558 5.20269 47.9152 5.28514 47.8519 5.34845C47.7886 5.41176 47.7061 5.45237 47.6173 5.46398Z" fill="white" fill-opacity="0.36"/>
<path d="M45.5155 5.46726C45.5152 4.50422 45.7699 3.55827 46.2537 2.7256L46.2568 2.72027L46.3741 2.52556C46.3826 2.51169 46.3876 2.49599 46.3887 2.47977C46.3899 2.46355 46.3871 2.4473 46.3807 2.43237C46.3742 2.41745 46.3643 2.40429 46.3517 2.394C46.3391 2.38371 46.3242 2.37659 46.3083 2.37325C45.9797 2.30449 45.6467 2.25877 45.3117 2.23642C45.2722 2.23387 45.2343 2.21974 45.2028 2.1958C44.7133 1.82365 43.7431 1.17276 42.7541 1.00546C42.6865 0.994265 42.6172 1.00034 42.5526 1.02313C42.488 1.04592 42.4302 1.08468 42.3846 1.1358C42.339 1.18693 42.307 1.24876 42.2917 1.31554C42.2765 1.38232 42.2783 1.45188 42.2971 1.51775L42.5667 2.46134C42.5737 2.48579 42.5713 2.51198 42.5599 2.53473C42.5486 2.55749 42.5291 2.57514 42.5053 2.5842C41.5698 2.93173 40.7641 3.5679 40.1764 4.05277C40.1404 4.08221 40.0955 4.09842 40.049 4.0987C40.0025 4.09897 39.9573 4.0833 39.921 4.05429C39.8411 3.99083 39.7591 3.92829 39.675 3.86669C38.6687 3.13177 37.4865 3.03505 37.4368 3.0315C37.3736 3.02673 37.3102 3.0368 37.2516 3.06091C37.193 3.08502 37.1409 3.1225 37.0994 3.17035C37.0578 3.21821 37.0281 3.27511 37.0125 3.33651C36.9969 3.39792 36.9959 3.46212 37.0095 3.52398C37.0202 3.57298 37.2428 4.55693 37.8143 5.34186C37.84 5.37704 37.8538 5.41949 37.8538 5.46307C37.8538 5.50666 37.84 5.54911 37.8143 5.58429C37.2428 6.36896 37.0202 7.35317 37.0095 7.40216C36.9959 7.46403 36.9969 7.52823 37.0125 7.58963C37.0281 7.65104 37.0578 7.70794 37.0994 7.7558C37.1409 7.80365 37.193 7.84113 37.2516 7.86524C37.3102 7.88935 37.3736 7.89942 37.4368 7.89465C37.4875 7.89109 38.6687 7.79311 39.6738 7.05996C39.7558 6.99972 39.836 6.93862 39.9142 6.87668C39.9505 6.84771 39.9957 6.83208 40.0422 6.8324C40.0886 6.83273 40.1336 6.84898 40.1695 6.87846C40.7598 7.36561 41.567 8.00254 42.505 8.35083C42.5287 8.35989 42.5482 8.3775 42.5596 8.4002C42.571 8.42289 42.5734 8.44903 42.5665 8.47344L42.2959 9.41728C42.277 9.48316 42.2752 9.55272 42.2905 9.6195C42.3058 9.68628 42.3377 9.74811 42.3833 9.79923C42.4289 9.85035 42.4867 9.88911 42.5513 9.9119C42.6159 9.93469 42.6852 9.94077 42.7528 9.92957C43.1884 9.85595 44.0698 9.60311 45.1911 8.74076C45.2231 8.71631 45.2616 8.70176 45.3018 8.69887C45.6364 8.67698 45.969 8.63203 46.2974 8.56432C46.3129 8.56107 46.3274 8.55424 46.3398 8.54437C46.3522 8.5345 46.3621 8.52187 46.3688 8.50749C46.3754 8.49311 46.3786 8.47737 46.378 8.46154C46.3775 8.44572 46.3733 8.43023 46.3657 8.41633L46.2512 8.20588C45.7688 7.37386 45.5149 6.42904 45.5155 5.46726Z" fill="white" fill-opacity="0.36"/>
</svg>
