<svg width="20" height="20" viewBox="0 0 20 20" fill="none" xmlns="http://www.w3.org/2000/svg">
<rect width="20" height="20" rx="4" fill="#D59F61"/>
<path d="M18.0016 10.0002C18.0016 9.48335 17.5556 8.53897 16.5763 7.68772C16.0173 7.20686 15.3802 6.82511 14.6925 6.55897C14.6697 6.55042 14.6444 6.55067 14.6217 6.55968C14.599 6.56869 14.5805 6.58581 14.5697 6.60772C14.565 6.61678 14.5603 6.62553 14.555 6.6346L14.2553 7.13147C13.7499 8.00417 13.484 8.99486 13.4844 10.0033C13.4848 11.0118 13.7515 12.0023 14.2575 12.8746L14.2647 12.8868L14.5378 13.3868C14.5523 13.4133 14.576 13.4337 14.6043 13.4442C14.6327 13.4547 14.664 13.4545 14.6922 13.4437C16.99 12.5446 18.0016 10.7968 18.0016 10.0002ZM15.0666 9.99585C14.963 10.0094 14.8578 9.99017 14.7658 9.94088C14.6737 9.89159 14.5994 9.81471 14.5532 9.72102C14.5071 9.62734 14.4914 9.52155 14.5084 9.41852C14.5255 9.31548 14.5743 9.22036 14.6482 9.14652C14.722 9.07267 14.8172 9.0238 14.9202 9.00676C15.0232 8.98973 15.129 9.00539 15.2227 9.05154C15.3164 9.09769 15.3933 9.17202 15.4426 9.26409C15.4918 9.35616 15.5111 9.46136 15.4975 9.56491C15.4832 9.67419 15.4332 9.77569 15.3553 9.85362C15.2774 9.93156 15.1759 9.98155 15.0666 9.99585Z" fill="white"/>
<path d="M12.4827 10.0002C12.4822 8.81469 12.7958 7.65022 13.3914 6.6252L13.3952 6.61864L13.5395 6.37895C13.55 6.36188 13.5562 6.34254 13.5576 6.32258C13.559 6.30262 13.5556 6.28261 13.5476 6.26424C13.5397 6.24586 13.5275 6.22966 13.512 6.217C13.4965 6.20433 13.4782 6.19557 13.4586 6.19145C13.0541 6.10681 12.6441 6.05053 12.2317 6.02301C12.1831 6.01987 12.1365 6.00248 12.0977 5.97301C11.4952 5.51489 10.3008 4.71364 9.08329 4.5077C9.00009 4.49392 8.91476 4.5014 8.83523 4.52945C8.7557 4.55751 8.68456 4.60522 8.62843 4.66815C8.57229 4.73109 8.53298 4.8072 8.51417 4.8894C8.49535 4.97161 8.49763 5.05724 8.52079 5.13833L8.85267 6.29989C8.8613 6.32999 8.85832 6.36224 8.84431 6.39024C8.83031 6.41825 8.8063 6.43998 8.77704 6.45114C7.62548 6.87895 6.63361 7.66208 5.91017 8.25895C5.86589 8.29519 5.81053 8.31515 5.75331 8.31549C5.6961 8.31583 5.6405 8.29654 5.59579 8.26083C5.49746 8.1827 5.39652 8.10572 5.29298 8.02989C4.05423 7.1252 2.59892 7.00614 2.53767 7.00177C2.4599 6.99589 2.38184 7.00829 2.30972 7.03797C2.2376 7.06765 2.17342 7.11378 2.12232 7.17269C2.07121 7.2316 2.03459 7.30165 2.01539 7.37724C1.99619 7.45283 1.99494 7.53186 2.01173 7.60802C2.02486 7.66833 2.29892 8.87958 3.00236 9.84583C3.03402 9.88914 3.05109 9.9414 3.05109 9.99505C3.05109 10.0487 3.03402 10.101 3.00236 10.1443C2.29892 11.1102 2.02486 12.3218 2.01173 12.3821C1.99494 12.4582 1.99619 12.5373 2.01539 12.6129C2.03459 12.6884 2.07121 12.7585 2.12232 12.8174C2.17342 12.8763 2.2376 12.9224 2.30972 12.9521C2.38184 12.9818 2.4599 12.9942 2.53767 12.9883C2.60017 12.984 4.05423 12.8633 5.29142 11.9608C5.39246 11.8867 5.49111 11.8115 5.58736 11.7352C5.6321 11.6995 5.68772 11.6803 5.74493 11.6807C5.80214 11.6811 5.85749 11.7011 5.90173 11.7374C6.62829 12.3371 7.62204 13.1211 8.77673 13.5499C8.80592 13.561 8.82988 13.5827 8.84387 13.6107C8.85787 13.6386 8.8609 13.6708 8.85236 13.7008L8.51923 14.8627C8.49606 14.9438 8.49378 15.0294 8.5126 15.1116C8.53142 15.1938 8.57073 15.2699 8.62686 15.3329C8.683 15.3958 8.75414 15.4435 8.83367 15.4716C8.9132 15.4996 8.99853 15.5071 9.08173 15.4933C9.61798 15.4027 10.703 15.0915 12.0833 14.0299C12.1227 13.9998 12.1701 13.9819 12.2195 13.9783C12.6314 13.9514 13.0409 13.896 13.4452 13.8127C13.4642 13.8087 13.4821 13.8003 13.4974 13.7881C13.5126 13.776 13.5248 13.7604 13.533 13.7427C13.5412 13.725 13.5451 13.7057 13.5444 13.6862C13.5438 13.6667 13.5386 13.6476 13.5292 13.6305L13.3883 13.3715C12.7944 12.3472 12.4819 11.1842 12.4827 10.0002Z" fill="white"/>
</svg>
