<svg width="50" height="50" viewBox="0 0 50 50" fill="none" xmlns="http://www.w3.org/2000/svg">
<path fill-rule="evenodd" clip-rule="evenodd" d="M51.3347 32.6667V37.3333C51.2791 37.3333 51.2022 37.3563 51.0991 37.4078L50.8563 37.5501C50.8095 37.5806 50.7593 37.6148 50.7059 37.6527L50.3412 37.9264C50.2731 37.98 50.201 38.0379 50.1249 38.1001L49.6186 38.5269L48.1298 39.8452L47.6319 40.2589C46.2341 41.3818 45.0056 42 43.5569 42C41.9971 42 40.9866 41.5153 39.3524 40.1545L38.5496 39.4628L37.4952 38.5269L36.9888 38.1001L36.5792 37.7777L36.2574 37.5502L36.0146 37.4078C35.9115 37.3564 35.8346 37.3334 35.779 37.3334C35.7235 37.3334 35.6467 37.3564 35.5435 37.4078L35.3007 37.5501C35.2539 37.5806 35.2038 37.6148 35.1502 37.6527L34.7857 37.9264C34.7175 37.98 34.6454 38.0379 34.5693 38.1001L34.0629 38.5269L32.5945 39.8247C30.7239 41.4378 29.681 42 28.0013 42C26.3215 42 25.2787 41.4378 23.4082 39.8247L21.9396 38.5269L21.4332 38.1001L21.0237 37.7777C20.9189 37.6984 20.8116 37.6226 20.7019 37.5502L20.4591 37.4078C20.356 37.3564 20.2791 37.3334 20.2235 37.3334C20.1679 37.3334 20.0912 37.3564 19.988 37.4078L19.7452 37.5501L19.4234 37.7777L19.0138 38.1001L18.5074 38.5269L17.453 39.4628L16.6502 40.1545C15.0162 41.5153 14.0055 42 12.4458 42C10.766 42 9.72317 41.4378 7.85253 39.8247L6.38406 38.5269L5.87766 38.1001L5.46805 37.7777C5.36329 37.6984 5.25601 37.6226 5.14638 37.5502L4.90356 37.4078C4.83477 37.3735 4.77778 37.3519 4.73075 37.3412L4.66797 37.3333V32.6667C6.34775 32.6667 7.39053 33.2289 9.26117 34.842L10.7296 36.1397L11.236 36.5666L11.6457 36.889C11.7504 36.9683 11.8578 37.0442 11.9674 37.1165L12.2102 37.2589C12.3133 37.3103 12.3902 37.3333 12.4457 37.3333C12.5013 37.3333 12.5781 37.3103 12.6813 37.2589L12.9241 37.1165L13.2458 36.889L13.6554 36.5666L14.1618 36.1397L15.2162 35.2039L16.019 34.5122C17.6531 33.1515 18.6637 32.6667 20.2235 32.6667C21.9033 32.6667 22.9461 33.2289 24.8167 34.842L26.2853 36.1397L26.7916 36.5666L27.2012 36.889C27.306 36.9683 27.4133 37.0442 27.523 37.1165L27.7658 37.2589C27.8689 37.3103 27.9457 37.3333 28.0013 37.3333C28.0568 37.3333 28.1337 37.3103 28.2369 37.2589L28.4797 37.1165C28.5304 37.0833 28.5806 37.0491 28.6301 37.014L28.9947 36.7403C29.0628 36.6866 29.1349 36.6287 29.2111 36.5666L29.7174 36.1397L31.1859 34.842C33.0565 33.2289 34.0994 32.6667 35.779 32.6667C37.3388 32.6667 38.3493 33.1515 39.9835 34.5122L40.7863 35.2039L41.8407 36.1397L42.3471 36.5666L42.7567 36.889L43.0785 37.1165L43.3213 37.2589C43.4245 37.3103 43.5013 37.3333 43.5569 37.3333C43.6452 37.3333 43.8894 37.2215 44.276 36.9488L44.7095 36.6207L45.1112 36.2858L46.7415 34.842C48.4783 33.3441 49.5017 32.7523 50.9839 32.6755L51.3347 32.6667ZM51.3347 42V46.6667C51.2791 46.6667 51.2022 46.6897 51.0991 46.7411L50.8563 46.8835C50.8055 46.9167 50.7554 46.9509 50.7059 46.986L50.3412 47.2597C50.2731 47.3134 50.201 47.3713 50.1249 47.4334L49.6186 47.8603L48.1298 49.1785L47.6319 49.5923C46.234 50.7151 45.0056 51.3333 43.5569 51.3333C41.9971 51.3333 40.9866 50.8485 39.3524 49.4878L38.5496 48.7961L37.4952 47.8603L36.9888 47.4334L36.5792 47.111L36.2574 46.8835L36.0146 46.7411C35.9115 46.6897 35.8346 46.6667 35.779 46.6667C35.7235 46.6667 35.6467 46.6897 35.5435 46.7411L35.3007 46.8835C35.2539 46.9139 35.2038 46.9481 35.1502 46.986L34.7857 47.2597C34.7175 47.3134 34.6454 47.3713 34.5693 47.4334L34.0629 47.8603L32.5945 49.158C30.7239 50.7711 29.681 51.3333 28.0013 51.3333C26.3215 51.3333 25.2787 50.7711 23.4082 49.158L21.9396 47.8603L21.4332 47.4334L21.0237 47.111C20.9189 47.0317 20.8116 46.9558 20.7019 46.8835L20.4591 46.7411C20.356 46.6897 20.2791 46.6667 20.2235 46.6667C20.1679 46.6667 20.0912 46.6897 19.988 46.7411L19.7452 46.8835L19.4234 47.111L19.0138 47.4334L18.5074 47.8603L17.453 48.7961L16.6502 49.4878C15.0162 50.8485 14.0055 51.3333 12.4458 51.3333C10.766 51.3333 9.72317 50.7711 7.85253 49.158L6.38406 47.8603L5.87766 47.4334L5.46805 47.111C5.36329 47.0317 5.25601 46.9558 5.14638 46.8835L4.90356 46.7411C4.83477 46.7068 4.77778 46.6852 4.73075 46.6746L4.66797 46.6667V42C6.34775 42 7.39053 42.5622 9.26117 44.1753L10.7296 45.4731L11.236 45.8999L11.6457 46.2223C11.7504 46.3016 11.8578 46.3774 11.9674 46.4498L12.2102 46.5922C12.3133 46.6436 12.3902 46.6666 12.4457 46.6666C12.5013 46.6666 12.5781 46.6436 12.6813 46.5922L12.9241 46.4499L13.2458 46.2223L13.6554 45.8999L14.1618 45.4731L15.2162 44.5372L16.019 43.8455C17.6531 42.4847 18.6637 42 20.2236 42C21.9034 42 22.9462 42.5622 24.8168 44.1753L26.2854 45.4731L26.7917 45.8999L27.2013 46.2223C27.3061 46.3016 27.4134 46.3774 27.5231 46.4498L27.7659 46.5922C27.869 46.6436 27.9458 46.6666 28.0014 46.6666C28.0569 46.6666 28.1338 46.6436 28.237 46.5922L28.4798 46.4499C28.5266 46.4194 28.5767 46.3852 28.6302 46.3473L28.9948 46.0736C29.0629 46.02 29.135 45.9621 29.2112 45.8999L29.7175 45.4731L31.186 44.1753C33.0565 42.5622 34.0994 42 35.7789 42C37.3387 42 38.3492 42.4847 39.9834 43.8455L40.7862 44.5372L41.8406 45.4731L42.347 45.8999L42.7566 46.2223L43.0784 46.4498L43.3212 46.5922C43.4243 46.6436 43.5012 46.6666 43.5568 46.6666C43.6451 46.6666 43.8893 46.5548 44.2759 46.2821L44.7094 45.954L45.1111 45.6191L46.7414 44.1753C48.4782 42.6774 49.5015 42.0856 50.9838 42.0087L51.3347 42ZM23.3347 7C27.2188 7 30.6595 8.89809 32.7801 11.8173L33.0849 11.7738C33.5815 11.7028 34.0634 11.5522 34.512 11.328L37.5159 9.82603C38.164 9.50213 38.8785 9.33343 39.603 9.3333H49.0013V11.2C49.0013 14 48.1263 15.4 47.2513 16.3333L46.8788 16.7075L46.1953 17.3496C45.7871 17.7523 45.5013 18.1333 45.5013 18.6667C45.5013 19.2046 45.7991 19.667 46.2208 20.1679L47.0331 21.0855C47.9743 22.1666 49.0013 23.6055 49.0013 26.1333V28H39.603C38.8785 27.9999 38.164 27.8312 37.5159 27.5074L34.512 26.0053C34.0634 25.781 33.5815 25.6305 33.0849 25.5595L32.7801 25.5161C30.6595 28.4353 27.2188 30.3333 23.3347 30.3333H18.668C12.2247 30.3333 7.00127 25.11 7.00127 18.6667C7.00127 12.2234 12.2247 7 18.668 7H23.3347ZM23.3347 11.6667H18.668C14.802 11.6667 11.668 14.8006 11.668 18.6667C11.668 22.3946 14.5822 25.4418 18.2567 25.6548L18.668 25.6667H23.3347C25.4564 25.6667 27.4128 24.7208 28.7317 23.1252L29.0045 22.7734L30.6565 20.4992L33.7449 20.9398C34.5385 21.0532 35.3143 21.2683 36.0529 21.58L36.599 21.8314L39.603 23.3333H42.7993L42.545 23.0246L42.18 22.5624C42.1292 22.4957 42.0794 22.4282 42.0307 22.36L41.9345 22.2196C41.2486 21.1681 40.8347 20.0061 40.8347 18.6667C40.8347 17.0382 41.4109 15.7486 42.3509 14.6367L42.7262 14.2225L42.9487 14H39.6029L36.599 15.5019C35.8818 15.8606 35.1214 16.1253 34.3365 16.2894L33.7441 16.3937L30.6565 16.8341L29.0045 14.5599C27.7789 12.8729 25.8823 11.8146 23.7866 11.681L23.3347 11.6667ZM18.668 16.3333C19.9566 16.3333 21.0013 17.378 21.0013 18.6667C21.0013 19.9554 19.9567 21 18.668 21C17.3792 21 16.3347 19.9554 16.3347 18.6667C16.3347 17.378 17.3792 16.3333 18.668 16.3333Z" fill="white" fill-opacity="0.43"/>
</svg>
