<svg width="20" height="20" viewBox="0 0 20 20" fill="none" xmlns="http://www.w3.org/2000/svg">
<rect width="20" height="20" rx="4" fill="#7E7AE9"/>
<path d="M3.33301 3H9.16699C9.25528 3.00009 9.33991 3.03522 9.40234 3.09766C9.46478 3.16009 9.49991 3.24472 9.5 3.33301V10.5H16.667C16.7553 10.5001 16.8399 10.5352 16.9023 10.5977C16.9648 10.6601 16.9999 10.7447 17 10.833V16.667C16.9999 16.7553 16.9648 16.8399 16.9023 16.9023C16.8399 16.9648 16.7553 16.9999 16.667 17H3.33301C3.24472 16.9999 3.16009 16.9648 3.09766 16.9023C3.03522 16.8399 3.00009 16.7553 3 16.667V3.33301C3.00009 3.24472 3.03522 3.16009 3.09766 3.09766C3.16009 3.03522 3.24472 3.00009 3.33301 3ZM3.66699 6.33301H5.33301V7H3.66699V9.66699H6.16699V10.333H3.66699V13H5.33301V13.667H3.66699V16.333H6.33301V14.667H7V16.333H9.66699V13.833H10.333V16.333H13V14.667H13.667V16.333H16.333V11.167H8.83301V3.66699H3.66699V6.33301Z" fill="white" stroke="white"/>
</svg>
