<svg width="20" height="20" viewBox="0 0 20 20" fill="none" xmlns="http://www.w3.org/2000/svg">
<rect width="20" height="20" rx="4" fill="#BA60FF"/>
<path d="M15.8307 12.4998V15.7407C15.8307 17.5948 15.2174 18.3332 13.2382 18.3332H6.75573C4.9024 18.3332 4.16406 17.7198 4.16406 15.7407V12.4998C4.16406 11.7338 4.31495 10.9752 4.6081 10.2675C4.90125 9.55978 5.33093 8.91672 5.87261 8.37505C6.41428 7.83337 7.05734 7.40369 7.76508 7.11054C8.47281 6.81739 9.23135 6.6665 9.9974 6.6665C10.7634 6.6665 11.522 6.81739 12.2297 7.11054C12.9374 7.40369 13.5805 7.83337 14.1222 8.37505C14.6639 8.91672 15.0935 9.55978 15.3867 10.2675C15.6798 10.9752 15.8307 11.7338 15.8307 12.4998Z" stroke="white" stroke-width="1.5" stroke-linecap="round" stroke-linejoin="round"/>
<path d="M13.3319 12.4998C13.3319 11.6158 12.9807 10.7679 12.3556 10.1428C11.7305 9.51769 10.8826 9.1665 9.99858 9.1665C9.11452 9.1665 8.26668 9.51769 7.64155 10.1428C7.01643 10.7679 6.66524 11.6158 6.66524 12.4998M9.99858 14.1665L10.8319 12.4998M11.6652 6.6665V4.1665M8.33191 6.6665V4.1665M13.5919 4.1665H6.40524C5.66858 4.1665 5.30024 4.1665 4.97608 4.03984C4.86875 3.99861 4.76598 3.94639 4.66941 3.884C4.37774 3.70067 4.17358 3.41067 3.76524 2.8315C3.44691 2.38067 3.28774 2.15484 3.34274 1.97067C3.36046 1.91198 3.3909 1.85791 3.43191 1.81234C3.56524 1.6665 3.85191 1.6665 4.42608 1.6665H15.5727C16.1469 1.6665 16.4336 1.6665 16.5661 1.81234C16.6077 1.859 16.6375 1.91178 16.6552 1.97067C16.7102 2.15484 16.5511 2.38067 16.2327 2.8315C15.8244 3.41067 15.6202 3.69984 15.3286 3.884C15.232 3.94639 15.1292 3.99861 15.0219 4.03984C14.6961 4.1665 14.3286 4.1665 13.5919 4.1665Z" stroke="white" stroke-width="1.5" stroke-linecap="round" stroke-linejoin="round"/>
</svg>
