<svg width="16" height="16" viewBox="0 0 16 16" fill="none" xmlns="http://www.w3.org/2000/svg">
<path d="M3.12336 4.14174L4.53203 12.6504C4.59647 13.0399 4.79709 13.3939 5.09817 13.6494C5.39924 13.9048 5.78121 14.045 6.17603 14.0451H8.40803M12.8734 4.14174L11.4654 12.6504C11.4009 13.0399 11.2003 13.3939 10.8992 13.6494C10.5982 13.9048 10.2162 14.045 9.82136 14.0451H7.58936M6.68003 7.41041V10.7764M9.31736 7.41041V10.7764M1.83203 4.14174H14.1654M9.85003 4.14174V2.95508C9.85003 2.68986 9.74467 2.43551 9.55714 2.24797C9.3696 2.06043 9.11525 1.95508 8.85003 1.95508H7.14736C6.88215 1.95508 6.62779 2.06043 6.44026 2.24797C6.25272 2.43551 6.14736 2.68986 6.14736 2.95508V4.14174H9.85003Z" stroke="black" stroke-width="1.5" stroke-linecap="round" stroke-linejoin="round"/>
</svg>
