<svg width="13" height="14" viewBox="0 0 13 14" fill="none" xmlns="http://www.w3.org/2000/svg">
<path d="M6.74133 2.17586L9.68133 5.10786M0.75 13.0832H11.6967M0.986 10.0732L1.31467 7.78986C1.33235 7.64069 1.40141 7.50232 1.51 7.39852L7.95333 0.955859C8.03616 0.871405 8.1394 0.809781 8.25305 0.77696C8.3667 0.744139 8.4869 0.741234 8.602 0.768526C9.19647 0.926339 9.73699 1.24245 10.166 1.68319C10.6097 2.11124 10.9286 2.65185 11.0887 3.24719C11.1134 3.36243 11.1091 3.48199 11.0763 3.59518C11.0435 3.70838 10.9831 3.81168 10.9007 3.89586L4.458 10.3385C4.34692 10.4411 4.20841 10.5092 4.05933 10.5345L1.768 10.8625C1.66127 10.8769 1.55265 10.8664 1.45068 10.8317C1.34872 10.797 1.2562 10.7391 1.1804 10.6626C1.1046 10.5861 1.04759 10.4931 1.01386 10.3908C0.980124 10.2885 0.970588 10.1798 0.986 10.0732Z" stroke="black" stroke-width="1.5" stroke-linecap="round" stroke-linejoin="round"/>
</svg>
