<svg width="20" height="20" viewBox="0 0 20 20" fill="none" xmlns="http://www.w3.org/2000/svg">
<path d="M9.9987 11.6666V13.3333C8.67262 13.3333 7.40085 13.86 6.46316 14.7977C5.52548 15.7354 4.9987 17.0072 4.9987 18.3333H3.33203C3.33203 16.5651 4.03441 14.8694 5.28465 13.6192C6.5349 12.369 8.23059 11.6666 9.9987 11.6666ZM9.9987 10.8333C7.2362 10.8333 4.9987 8.59575 4.9987 5.83325C4.9987 3.07075 7.2362 0.833252 9.9987 0.833252C12.7612 0.833252 14.9987 3.07075 14.9987 5.83325C14.9987 8.59575 12.7612 10.8333 9.9987 10.8333ZM9.9987 9.16658C11.8404 9.16658 13.332 7.67492 13.332 5.83325C13.332 3.99159 11.8404 2.49992 9.9987 2.49992C8.15703 2.49992 6.66536 3.99159 6.66536 5.83325C6.66536 7.67492 8.15703 9.16658 9.9987 9.16658ZM17.4987 14.1666H18.332V18.3333H11.6654V14.1666H12.4987V13.3333C12.4987 12.6702 12.7621 12.0343 13.2309 11.5655C13.6998 11.0966 14.3357 10.8333 14.9987 10.8333C15.6617 10.8333 16.2976 11.0966 16.7665 11.5655C17.2353 12.0343 17.4987 12.6702 17.4987 13.3333V14.1666ZM15.832 14.1666V13.3333C15.832 13.1122 15.7442 12.9003 15.588 12.744C15.4317 12.5877 15.2197 12.4999 14.9987 12.4999C14.7777 12.4999 14.5657 12.5877 14.4094 12.744C14.2532 12.9003 14.1654 13.1122 14.1654 13.3333V14.1666H15.832Z" fill="#414141"/>
</svg>
