<svg width="20" height="20" viewBox="0 0 20 20" fill="none" xmlns="http://www.w3.org/2000/svg">
<path d="M19.9981 10C19.9981 9.35394 19.4407 8.17347 18.2164 7.10941C17.5177 6.50833 16.7213 6.03114 15.8617 5.69847C15.8332 5.68778 15.8016 5.68809 15.7732 5.69935C15.7449 5.71062 15.7217 5.73202 15.7082 5.75941C15.7024 5.77074 15.6965 5.78167 15.6899 5.793L15.3153 6.4141C14.6835 7.50497 14.3511 8.74333 14.3516 10.0039C14.352 11.2645 14.6854 12.5026 15.318 13.593L15.327 13.6082L15.6684 14.2332C15.6865 14.2664 15.716 14.2919 15.7515 14.305C15.787 14.3181 15.826 14.3178 15.8614 14.3043C18.7336 13.1805 19.9981 10.9957 19.9981 10ZM16.3293 9.99457C16.1999 10.0115 16.0684 9.98747 15.9533 9.92586C15.8382 9.86424 15.7453 9.76814 15.6876 9.65103C15.6299 9.53393 15.6104 9.4017 15.6316 9.2729C15.6529 9.14411 15.714 9.02521 15.8063 8.9329C15.8986 8.84059 16.0175 8.7795 16.1463 8.75821C16.2751 8.73692 16.4074 8.75649 16.5245 8.81418C16.6416 8.87187 16.7377 8.96478 16.7993 9.07987C16.8609 9.19496 16.8849 9.32645 16.868 9.45589C16.8501 9.5925 16.7876 9.71937 16.6902 9.81678C16.5928 9.9142 16.4659 9.9767 16.3293 9.99457Z" fill="#093832"/>
<path d="M13.1033 10C13.1028 8.51812 13.4947 7.06253 14.2393 5.78126L14.244 5.77306L14.4244 5.47345C14.4375 5.4521 14.4452 5.42794 14.447 5.40298C14.4487 5.37803 14.4445 5.35302 14.4346 5.33005C14.4246 5.30709 14.4094 5.28683 14.39 5.271C14.3706 5.25517 14.3477 5.24422 14.3233 5.23907C13.8176 5.13327 13.3051 5.06291 12.7897 5.02852C12.7289 5.0246 12.6706 5.00286 12.6221 4.96602C11.869 4.39337 10.376 3.39181 8.85412 3.13438C8.75012 3.11715 8.64345 3.1265 8.54404 3.16157C8.44463 3.19664 8.3557 3.25628 8.28553 3.33495C8.21536 3.41361 8.16623 3.50875 8.14271 3.61151C8.11918 3.71427 8.12203 3.82131 8.15099 3.92267L8.56583 5.37462C8.57662 5.41224 8.5729 5.45255 8.55539 5.48756C8.53789 5.52257 8.50788 5.54974 8.4713 5.56368C7.03185 6.09845 5.79201 7.07735 4.88771 7.82345C4.83237 7.86875 4.76316 7.89369 4.69164 7.89412C4.62012 7.89454 4.55062 7.87043 4.49474 7.82579C4.37182 7.72813 4.24565 7.63191 4.11623 7.53712C2.56779 6.40626 0.748648 6.25743 0.672085 6.25196C0.574877 6.24462 0.477299 6.26012 0.387149 6.29721C0.296999 6.33431 0.216777 6.39199 0.152895 6.46562C0.089013 6.53926 0.0432419 6.62682 0.0192399 6.7213C-0.00476202 6.81579 -0.00632933 6.91458 0.0146633 7.00977C0.0310695 7.08517 0.373648 8.59923 1.25294 9.80704C1.29253 9.86118 1.31386 9.9265 1.31386 9.99356C1.31386 10.0606 1.29253 10.126 1.25294 10.1801C0.373648 11.3875 0.0310695 12.902 0.0146633 12.9774C-0.00632933 13.0726 -0.00476202 13.1713 0.0192399 13.2658C0.0432419 13.3603 0.089013 13.4479 0.152895 13.5215C0.216777 13.5951 0.296999 13.6528 0.387149 13.6899C0.477299 13.727 0.574877 13.7425 0.672085 13.7352C0.75021 13.7297 2.56779 13.5789 4.11427 12.4508C4.24057 12.3581 4.36388 12.2641 4.48419 12.1688C4.54012 12.1242 4.60964 12.1001 4.68116 12.1006C4.75268 12.1011 4.82186 12.1261 4.87716 12.1715C5.78537 12.9211 7.02755 13.9012 8.47091 14.4371C8.5074 14.4511 8.53734 14.4782 8.55484 14.5131C8.57234 14.548 8.57612 14.5882 8.56544 14.6258L8.14904 16.0781C8.12008 16.1795 8.11723 16.2865 8.14075 16.3893C8.16428 16.492 8.21341 16.5872 8.28358 16.6659C8.35375 16.7445 8.44267 16.8042 8.54209 16.8392C8.6415 16.8743 8.74817 16.8836 8.85216 16.8664C9.52247 16.7531 10.8787 16.3641 12.6041 15.0371C12.6534 14.9995 12.7126 14.9771 12.7744 14.9727C13.2893 14.939 13.8012 14.8698 14.3065 14.7656C14.3303 14.7606 14.3527 14.7501 14.3717 14.7349C14.3908 14.7197 14.406 14.7003 14.4162 14.6782C14.4264 14.656 14.4313 14.6318 14.4305 14.6075C14.4297 14.5831 14.4232 14.5593 14.4115 14.5379L14.2354 14.2141C13.493 12.9338 13.1024 11.4799 13.1033 10Z" fill="#093832"/>
</svg>
