<svg width="20" height="20" viewBox="0 0 20 20" fill="none" xmlns="http://www.w3.org/2000/svg">
<path d="M12.7096 2.29175H7.29297C4.53155 2.29175 2.29297 4.53032 2.29297 7.29175V12.7084C2.29297 15.4698 4.53155 17.7084 7.29297 17.7084H12.7096C15.4711 17.7084 17.7096 15.4698 17.7096 12.7084V7.29175C17.7096 4.53032 15.4711 2.29175 12.7096 2.29175Z" stroke="black" stroke-width="1.5"/>
<path d="M5.83594 12.5L7.8776 9.78333C8.00263 9.61604 8.18592 9.50179 8.39118 9.46321C8.59643 9.42462 8.8087 9.46452 8.98594 9.575L10.9776 10.8333C11.1617 10.9505 11.3843 10.9909 11.5978 10.9457C11.8113 10.9005 11.9985 10.7734 12.1193 10.5917L14.1693 7.5" stroke="black" stroke-width="1.5" stroke-linecap="round" stroke-linejoin="round"/>
</svg>
