<svg width="16" height="16" viewBox="0 0 16 16" fill="none" xmlns="http://www.w3.org/2000/svg">
<path d="M8.34268 1.76949C8.24822 1.68553 8.12625 1.63916 7.99988 1.63916C7.87351 1.63916 7.75153 1.68553 7.65708 1.76949C7.02361 2.33135 6.55814 3.05769 6.31229 3.86796C6.06644 4.67822 6.04982 5.54075 6.26428 6.35989C5.24898 5.76003 4.07215 5.49106 2.89708 5.59029C2.82733 5.59602 2.75941 5.61551 2.69722 5.64761C2.63504 5.67972 2.57982 5.72381 2.53476 5.77736C2.48969 5.8309 2.45567 5.89283 2.43465 5.95958C2.41363 6.02633 2.40603 6.09658 2.41228 6.16629C2.51148 7.25829 3.02348 8.34229 3.73308 9.18229C3.4546 9.16412 3.17516 9.16679 2.89708 9.19029C2.82733 9.19602 2.75941 9.21551 2.69722 9.24761C2.63504 9.27972 2.57982 9.32381 2.53476 9.37736C2.48969 9.4309 2.45567 9.49283 2.43465 9.55958C2.41363 9.62633 2.40603 9.69658 2.41228 9.76629C2.52764 11.0324 3.11213 12.2097 4.051 13.067C4.98986 13.9243 6.21528 14.3997 7.48668 14.3999H8.51308C9.78421 14.3996 11.0093 13.9242 11.948 13.0671C12.8867 12.2099 13.4711 11.033 13.5867 9.76709C13.593 9.69732 13.5855 9.62698 13.5645 9.56014C13.5436 9.4933 13.5096 9.43127 13.4645 9.37764C13.4194 9.32401 13.3642 9.27984 13.3019 9.24769C13.2397 9.21553 13.1717 9.19602 13.1019 9.19029C12.8238 9.16679 12.5444 9.16412 12.2659 9.18229C12.9755 8.34229 13.4875 7.25829 13.5859 6.16629C13.592 6.09667 13.5844 6.02652 13.5634 5.95986C13.5423 5.8932 13.5084 5.83134 13.4634 5.77784C13.4185 5.72433 13.3634 5.68022 13.3013 5.64803C13.2393 5.61585 13.1715 5.59623 13.1019 5.59029C11.9271 5.49123 10.7505 5.76019 9.73548 6.35989C9.95003 5.54082 9.93353 4.67834 9.68783 3.86808C9.44212 3.05782 8.97601 2.33144 8.34268 1.76949ZM8.00028 11.5423C7.31605 10.5931 6.35721 9.87667 5.25308 9.48949L5.22508 9.46869C4.26428 8.81589 3.45148 7.59989 3.24588 6.37269C4.45003 6.34125 5.62351 6.75481 6.54188 7.53429C7.14908 8.04869 7.31628 8.51829 7.46588 8.94069C7.52028 9.09269 7.57228 9.23909 7.64188 9.37829C7.67505 9.44485 7.72613 9.50084 7.78937 9.53999C7.85261 9.57913 7.9255 9.59986 7.99988 9.59986C8.07425 9.59986 8.14715 9.57913 8.21039 9.53999C8.27363 9.50084 8.3247 9.44485 8.35788 9.37829C8.42748 9.23909 8.47948 9.09269 8.53388 8.93989C8.68348 8.51909 8.85068 8.04869 9.45868 7.53429C10.3767 6.75471 11.5499 6.34087 12.7539 6.37189C12.5483 7.59989 11.7355 8.81509 10.7747 9.46869L10.7467 9.48949C9.64283 9.87681 8.68429 10.5933 8.00028 11.5423ZM7.48668 13.5999C6.46331 13.5996 5.47368 13.2339 4.69593 12.5688C3.91818 11.9037 3.4034 10.9828 3.24428 9.97189C4.13771 9.94897 5.02042 10.1706 5.79703 10.6129C6.57363 11.0552 7.2146 11.7014 7.65068 12.4815C7.68539 12.5436 7.73605 12.5954 7.79744 12.6314C7.85882 12.6674 7.9287 12.6864 7.99988 12.6864C8.07105 12.6864 8.14093 12.6674 8.20232 12.6314C8.2637 12.5954 8.31436 12.5436 8.34908 12.4815C8.78515 11.7014 9.42612 11.0552 10.2027 10.6129C10.9793 10.1706 11.862 9.94897 12.7555 9.97189C12.5963 10.9829 12.0814 11.904 11.3035 12.5691C10.5256 13.2342 9.53578 13.5998 8.51228 13.5999H7.48668ZM7.99948 7.85269C7.3054 7.14396 6.91668 6.19147 6.91668 5.19949C6.91668 4.2075 7.3054 3.25501 7.99948 2.54629C8.69355 3.25501 9.08227 4.2075 9.08227 5.19949C9.08227 6.19147 8.69355 7.14396 7.99948 7.85269Z" fill="#A10000"/>
</svg>
