<svg width="16" height="16" viewBox="0 0 16 16" fill="none" xmlns="http://www.w3.org/2000/svg">
<path d="M12.6693 9.99992V12.5926C12.6693 14.0759 12.1786 14.6666 10.5953 14.6666H5.40927C3.9266 14.6666 3.33594 14.1759 3.33594 12.5926V9.99992C3.33594 9.38708 3.45664 8.78025 3.69117 8.21406C3.92569 7.64788 4.26943 7.13343 4.70277 6.70009C5.13611 6.26675 5.65056 5.923 6.21675 5.68848C6.78293 5.45396 7.38977 5.33325 8.0026 5.33325C8.61544 5.33325 9.22227 5.45396 9.78846 5.68848C10.3546 5.923 10.8691 6.26675 11.3024 6.70009C11.7358 7.13343 12.0795 7.64788 12.314 8.21406C12.5486 8.78025 12.6693 9.38708 12.6693 9.99992Z" stroke="#0F614E" stroke-linecap="round" stroke-linejoin="round"/>
<path d="M10.6679 9.99992C10.6679 9.29267 10.3869 8.6144 9.88682 8.1143C9.38673 7.6142 8.70845 7.33325 8.00121 7.33325C7.29396 7.33325 6.61568 7.6142 6.11559 8.1143C5.61549 8.6144 5.33454 9.29267 5.33454 9.99992M8.00121 11.3333L8.66787 9.99992M9.33454 5.33325V3.33325M6.66787 5.33325V3.33325M10.8759 3.33325H5.12654C4.53721 3.33325 4.24254 3.33325 3.98321 3.23192C3.89735 3.19894 3.81513 3.15716 3.73787 3.10725C3.50454 2.96059 3.34121 2.72859 3.01454 2.26525C2.75987 1.90459 2.63254 1.72392 2.67654 1.57659C2.69071 1.52963 2.71507 1.48638 2.74787 1.44992C2.85454 1.33325 3.08387 1.33325 3.54321 1.33325H12.4605C12.9199 1.33325 13.1492 1.33325 13.2552 1.44992C13.2885 1.48725 13.3123 1.52947 13.3265 1.57659C13.3705 1.72392 13.2432 1.90459 12.9885 2.26525C12.6619 2.72859 12.4985 2.95992 12.2652 3.10725C12.1879 3.15716 12.1057 3.19894 12.0199 3.23192C11.7592 3.33325 11.4652 3.33325 10.8759 3.33325Z" stroke="#0F614E" stroke-linecap="round" stroke-linejoin="round"/>
</svg>
