<svg width="20" height="20" viewBox="0 0 20 20" fill="none" xmlns="http://www.w3.org/2000/svg">
<path d="M11.8779 15.0836C11.911 15.0837 11.9424 15.0973 11.9658 15.1207C11.9892 15.1441 12.0029 15.1755 12.0029 15.2086C12.0029 15.2418 11.9893 15.274 11.9658 15.2975C11.9425 15.3207 11.9108 15.3335 11.8779 15.3336C11.8448 15.3336 11.8125 15.3209 11.7891 15.2975C11.7656 15.274 11.7529 15.2418 11.7529 15.2086C11.753 15.1756 11.7658 15.1441 11.7891 15.1207C11.8125 15.0973 11.8448 15.0836 11.8779 15.0836ZM10.0029 3.41663C11.2067 3.41663 12.114 3.81221 12.7441 4.41565C13.3787 5.02343 13.7638 5.87286 13.8623 6.82678L13.9082 7.27502H14.4258C15.8499 7.27502 17.0028 8.42628 17.0029 9.84338C17.0029 11.2605 15.8504 12.4126 14.4258 12.4127H7.45117L7.30566 12.6549L5.51074 15.6422C5.48038 15.6927 5.4318 15.7302 5.375 15.7457C5.31834 15.7611 5.25776 15.754 5.20605 15.7262C5.15425 15.6982 5.11491 15.6513 5.09668 15.5953C5.08308 15.5534 5.08182 15.5085 5.09277 15.4664L5.1084 15.4254L5.12402 15.3961L6.46094 13.1696L6.91602 12.4127H5.58105C4.15679 12.4127 3.00391 11.261 3.00391 9.84338C3.00408 8.42591 4.1569 7.27502 5.58105 7.27502H6.09863L6.14453 6.82581C6.2436 5.86435 6.62905 5.01622 7.2627 4.41077C7.89199 3.80949 8.79816 3.41666 10.0029 3.41663ZM9.4834 14.6735C9.49879 14.676 9.51346 14.6801 9.52734 14.6852L9.56738 14.7047C9.61593 14.7346 9.65122 14.7817 9.66699 14.8365C9.68249 14.8908 9.67702 14.9489 9.65234 14.9996L9.6416 15.0211L9.25879 15.6412L9.25781 15.6432C9.22696 15.6934 9.17806 15.7297 9.12109 15.7448C9.06392 15.7598 9.00285 15.752 8.95117 15.7233C8.89966 15.6945 8.86115 15.6468 8.84375 15.5905C8.82655 15.5344 8.83141 15.474 8.85742 15.4215L8.86914 15.4L9.25195 14.7799C9.26773 14.7543 9.28815 14.7321 9.3125 14.7145C9.33682 14.6969 9.36438 14.6843 9.39355 14.6774C9.42285 14.6704 9.45368 14.6687 9.4834 14.6735ZM13.9609 14.6666C13.9941 14.6666 14.0264 14.6803 14.0498 14.7037C14.073 14.7271 14.0858 14.7587 14.0859 14.7916C14.0859 14.8247 14.0731 14.8571 14.0498 14.8805C14.0264 14.9039 13.9941 14.9166 13.9609 14.9166C13.9279 14.9166 13.8965 14.9038 13.873 14.8805C13.8496 14.857 13.8359 14.8248 13.8359 14.7916C13.836 14.7586 13.8497 14.7271 13.873 14.7037C13.8965 14.6804 13.9279 14.6666 13.9609 14.6666ZM12.8291 13.0826C12.8326 13.0923 12.8345 13.1059 12.835 13.1256C12.8346 13.1432 12.8317 13.1605 12.8242 13.1764C12.8165 13.1929 12.805 13.2077 12.791 13.2194C12.7771 13.231 12.7607 13.2391 12.7432 13.2438C12.7256 13.2485 12.7073 13.2498 12.6895 13.2467C12.6716 13.2436 12.6545 13.2365 12.6396 13.2262C12.6247 13.2158 12.6117 13.2019 12.6025 13.1862C12.5935 13.1705 12.5886 13.1525 12.5869 13.1344C12.5853 13.1165 12.5877 13.0986 12.5938 13.0817L12.71 12.7555L12.8291 13.0826Z" stroke="black"/>
</svg>
