<svg width="20" height="20" viewBox="0 0 20 20" fill="none" xmlns="http://www.w3.org/2000/svg">
<path d="M10.0029 2.16663C10.5654 2.16765 11.1067 2.38289 11.5156 2.76917C11.9238 3.1547 12.1693 3.68156 12.2031 4.24182L12.207 4.38831L12.208 11.0016V11.2311L12.3809 11.3805L12.4404 11.4323H12.4414C13.1208 12.0389 13.5499 12.8764 13.6455 13.7819V13.7828L13.6592 13.9664H13.6602L13.665 14.1783C13.6632 14.7784 13.5147 15.369 13.2314 15.8981C12.9463 16.4307 12.5331 16.8846 12.0303 17.2194C11.5275 17.5541 10.9499 17.7594 10.3486 17.817C9.74742 17.8747 9.14119 17.7834 8.58398 17.5504C8.02675 17.3173 7.53545 16.9497 7.1543 16.4811C6.7732 16.0125 6.51316 15.4569 6.39844 14.8639C6.28375 14.2707 6.31808 13.6577 6.49707 13.0807C6.67608 12.5039 6.99371 11.9793 7.42383 11.5553L7.56738 11.4215L7.61523 11.3805L7.78906 11.2311V11.0016L7.79004 4.37463C7.78998 3.83207 7.99023 3.30868 8.35156 2.90393C8.71301 2.49912 9.21076 2.24142 9.75 2.1803L9.74902 2.17932L9.88086 2.16956L10.0029 2.16663ZM9.99902 2.41663C9.50737 2.41667 9.03344 2.60202 8.67188 2.93518C8.31051 3.26823 8.08714 3.7247 8.04688 4.21448L8.0459 4.22522V4.23499L8.04102 4.35413L8.04004 4.36487V11.3658L7.98926 11.403H7.98828C7.41208 11.8221 6.9818 12.4114 6.75684 13.0875C6.53185 13.7637 6.52412 14.4935 6.73438 15.1744C6.94467 15.8552 7.3627 16.4529 7.92969 16.8844C8.49675 17.316 9.18418 17.5604 9.89648 17.5817C10.6087 17.6029 11.3096 17.4004 11.9014 17.0035C12.4931 16.6066 12.9467 16.0348 13.1973 15.3678C13.4478 14.7006 13.483 13.9713 13.2988 13.2828C13.1146 12.5945 12.7201 11.9808 12.1699 11.528L12.1631 11.5231L12.1572 11.5182L12.0195 11.4117L12.0098 11.4049L11.958 11.3668L11.957 4.37463C11.9569 3.85537 11.751 3.35705 11.3838 2.98987C11.0166 2.62269 10.5183 2.41671 9.99902 2.41663ZM9.99902 7.16663C10.0319 7.16671 10.0636 7.1796 10.0869 7.20276C10.1104 7.2262 10.124 7.25847 10.124 7.29163V12.5465L10.4736 12.6559C10.8347 12.7694 11.1437 13.0084 11.3438 13.3297C11.5438 13.651 11.6219 14.0337 11.5645 14.4078C11.507 14.7819 11.3175 15.1233 11.0303 15.3698C10.7432 15.6161 10.3773 15.7515 9.99902 15.7516C9.62053 15.7516 9.25402 15.6163 8.9668 15.3698C8.6796 15.1233 8.49005 14.7819 8.43262 14.4078C8.3752 14.0337 8.45421 13.651 8.6543 13.3297C8.85436 13.0086 9.16253 12.7694 9.52344 12.6559L9.87402 12.5465V7.29163C9.87402 7.25847 9.88671 7.2262 9.91016 7.20276C9.93358 7.17942 9.96595 7.16663 9.99902 7.16663Z" fill="black" stroke="black"/>
</svg>
