<svg width="20" height="20" viewBox="0 0 20 20" fill="none" xmlns="http://www.w3.org/2000/svg">
<path d="M10.833 16.6666C11.0541 16.6666 11.266 16.7544 11.4223 16.9107C11.5786 17.067 11.6664 17.2789 11.6664 17.4999C11.6664 17.721 11.5786 17.9329 11.4223 18.0892C11.266 18.2455 11.0541 18.3333 10.833 18.3333C10.612 18.3333 10.4001 18.2455 10.2438 18.0892C10.0875 17.9329 9.9997 17.721 9.9997 17.4999C9.9997 17.2789 10.0875 17.067 10.2438 16.9107C10.4001 16.7544 10.612 16.6666 10.833 16.6666ZM7.91637 15.8333C8.13738 15.8333 8.34935 15.9211 8.50563 16.0774C8.66191 16.2336 8.7497 16.4456 8.7497 16.6666C8.7497 16.8876 8.66191 17.0996 8.50563 17.2559C8.34935 17.4121 8.13738 17.4999 7.91637 17.4999C7.69536 17.4999 7.4834 17.4121 7.32712 17.2559C7.17083 17.0996 7.08304 16.8876 7.08304 16.6666C7.08304 16.4456 7.17083 16.2336 7.32712 16.0774C7.4834 15.9211 7.69536 15.8333 7.91637 15.8333ZM13.7497 15.8333C13.9707 15.8333 14.1827 15.9211 14.339 16.0774C14.4952 16.2336 14.583 16.4456 14.583 16.6666C14.583 16.8876 14.4952 17.0996 14.339 17.2559C14.1827 17.4121 13.9707 17.4999 13.7497 17.4999C13.5287 17.4999 13.3167 17.4121 13.1604 17.2559C13.0042 17.0996 12.9164 16.8876 12.9164 16.6666C12.9164 16.4456 13.0042 16.2336 13.1604 16.0774C13.3167 15.9211 13.5287 15.8333 13.7497 15.8333ZM10.8347 5.00744C13.4747 5.00744 14.973 6.75494 15.1905 8.86578H15.2572C15.6608 8.86523 16.0605 8.94419 16.4335 9.09814C16.8065 9.2521 17.1456 9.47803 17.4313 9.76304C17.717 10.048 17.9438 10.3866 18.0986 10.7592C18.2535 11.1319 18.3334 11.5314 18.3339 11.9349C18.3333 12.3384 18.2533 12.7379 18.0984 13.1104C17.9435 13.483 17.7167 13.8214 17.431 14.1063C17.1453 14.3912 16.8063 14.6171 16.4333 14.771C16.0603 14.9249 15.6607 15.0038 15.2572 15.0033H6.41137C6.00788 15.0038 5.60824 14.9249 5.23526 14.771C4.86228 14.6171 4.52326 14.3912 4.23756 14.1063C3.95187 13.8214 3.72509 13.483 3.57018 13.1104C3.41526 12.7379 3.33525 12.3384 3.3347 11.9349C3.33514 11.5314 3.41507 11.1319 3.56994 10.7592C3.7248 10.3866 3.95156 10.048 4.23727 9.76304C4.52297 9.47803 4.86203 9.2521 5.23507 9.09814C5.6081 8.94419 6.00781 8.86523 6.41137 8.86578H6.47804C6.6972 6.74078 8.1947 5.00744 10.8347 5.00744ZM3.63887 8.46994C3.69682 8.60951 3.70224 8.76534 3.65413 8.90859C3.60603 9.05184 3.50764 9.17282 3.3772 9.24911L3.30137 9.28661L2.52887 9.60661C2.38274 9.66617 2.21949 9.66825 2.07189 9.61243C1.92429 9.55661 1.80327 9.44703 1.73312 9.30568C1.66297 9.16432 1.64889 9.00167 1.6937 8.85036C1.73851 8.69906 1.83889 8.5703 1.9747 8.48994L2.05054 8.45161L2.82304 8.13161C2.89887 8.10019 2.98016 8.08402 3.06224 8.08403C3.14433 8.08403 3.22561 8.1002 3.30145 8.13162C3.37729 8.16303 3.44619 8.20908 3.50423 8.26713C3.56227 8.32519 3.60747 8.3941 3.63887 8.46994ZM9.04554 4.44244L8.90304 4.49078C7.41554 5.01578 6.35054 6.16161 5.89054 7.67661L5.8322 7.88494L5.78304 8.08328L5.61137 8.11578C5.11255 8.21965 4.63944 8.42193 4.2197 8.71078C3.83776 8.0543 3.69509 7.28576 3.81598 6.53594C3.93687 5.78612 4.31384 5.10135 4.88274 4.59817C5.45164 4.09499 6.17733 3.80449 6.9363 3.77609C7.69527 3.7477 8.44063 3.98317 9.04554 4.44244ZM2.45137 4.46828L2.53887 4.49744L3.31054 4.81744C3.45526 4.87845 3.5717 4.9917 3.63671 5.13467C3.70171 5.27764 3.71051 5.43984 3.66135 5.589C3.61219 5.73816 3.50868 5.86334 3.37141 5.93965C3.23414 6.01595 3.07317 6.03777 2.92054 6.00078L2.8322 5.97244L2.06054 5.65244C1.91543 5.59162 1.79861 5.4783 1.73339 5.33512C1.66817 5.19194 1.65935 5.02943 1.70869 4.88003C1.75803 4.73063 1.86191 4.60534 1.99958 4.52916C2.13725 4.45299 2.29858 4.43072 2.45137 4.46828ZM5.63054 1.98078L5.66804 2.05661L5.98804 2.82828C6.04846 2.97454 6.05116 3.13827 5.99557 3.28644C5.93999 3.43461 5.83027 3.55617 5.68856 3.62661C5.54685 3.69704 5.3837 3.71109 5.23203 3.66593C5.08036 3.62077 4.95147 3.51976 4.87137 3.38328L4.83304 3.30661L4.51304 2.53494C4.45348 2.38881 4.4514 2.22556 4.50721 2.07796C4.56303 1.93036 4.67262 1.80934 4.81397 1.73919C4.95532 1.66904 5.11798 1.65496 5.26929 1.69977C5.42059 1.74458 5.55018 1.84497 5.63054 1.98078ZM9.2572 1.71494C9.39572 1.77222 9.50903 1.87737 9.57649 2.01122C9.64395 2.14507 9.66106 2.2987 9.6247 2.44411L9.59554 2.53161L9.27637 3.30328C9.21626 3.44934 9.10307 3.56722 8.95958 3.63322C8.81608 3.69922 8.65292 3.70845 8.5029 3.65904C8.35288 3.60963 8.22713 3.50525 8.15093 3.3669C8.07474 3.22855 8.05376 3.06647 8.0922 2.91328L8.12137 2.82494L8.44054 2.05328C8.47194 1.97743 8.51797 1.90852 8.57601 1.85047C8.63405 1.79242 8.70295 1.74637 8.77879 1.71495C8.85463 1.68353 8.93591 1.66736 9.018 1.66736C9.10008 1.66736 9.18137 1.68353 9.2572 1.71494Z" fill="#093832"/>
</svg>
