<svg width="24" height="24" viewBox="0 0 24 24" fill="none" xmlns="http://www.w3.org/2000/svg">
<path d="M13.4692 7.53007C13.6098 7.67052 13.8004 7.74941 13.9992 7.74941C14.1979 7.74941 14.3886 7.67052 14.5292 7.53007L15.2492 6.81007V17.0001C15.2492 17.199 15.3282 17.3898 15.4688 17.5304C15.6095 17.6711 15.8003 17.7501 15.9992 17.7501C16.1981 17.7501 16.3889 17.6711 16.5295 17.5304C16.6702 17.3898 16.7492 17.199 16.7492 17.0001V6.81007L17.4692 7.53007C17.5378 7.60376 17.6206 7.66286 17.7126 7.70385C17.8046 7.74485 17.904 7.76689 18.0047 7.76866C18.1054 7.77044 18.2054 7.75192 18.2988 7.7142C18.3922 7.67647 18.477 7.62033 18.5482 7.54911C18.6194 7.47789 18.6756 7.39306 18.7133 7.29967C18.751 7.20628 18.7695 7.10625 18.7678 7.00555C18.766 6.90485 18.7439 6.80553 18.703 6.71353C18.662 6.62154 18.6029 6.53873 18.5292 6.47007L16.5292 4.47007C16.3886 4.32962 16.1979 4.25073 15.9992 4.25073C15.8004 4.25073 15.6098 4.32962 15.4692 4.47007L13.4692 6.47007C13.3287 6.6107 13.2498 6.80132 13.2498 7.00007C13.2498 7.19882 13.3287 7.38945 13.4692 7.53007ZM8.74918 17.1901L9.46918 16.4701C9.53784 16.3964 9.62064 16.3373 9.71264 16.2963C9.80464 16.2553 9.90395 16.2333 10.0047 16.2315C10.1054 16.2297 10.2054 16.2482 10.2988 16.2859C10.3922 16.3237 10.477 16.3798 10.5482 16.451C10.6194 16.5223 10.6756 16.6071 10.7133 16.7005C10.751 16.7939 10.7695 16.8939 10.7678 16.9946C10.766 17.0953 10.7439 17.1946 10.703 17.2866C10.662 17.3786 10.6029 17.4614 10.5292 17.5301L8.52918 19.5301C8.38855 19.6705 8.19793 19.7494 7.99918 19.7494C7.80043 19.7494 7.6098 19.6705 7.46918 19.5301L5.46918 17.5301C5.39549 17.4614 5.33639 17.3786 5.2954 17.2866C5.2544 17.1946 5.23236 17.0953 5.23059 16.9946C5.22881 16.8939 5.24733 16.7939 5.28505 16.7005C5.32278 16.6071 5.37892 16.5223 5.45014 16.451C5.52136 16.3798 5.60619 16.3237 5.69958 16.2859C5.79297 16.2482 5.893 16.2297 5.9937 16.2315C6.0944 16.2333 6.19372 16.2553 6.28571 16.2963C6.37771 16.3373 6.46052 16.3964 6.52918 16.4701L7.24918 17.1901V7.00007C7.24918 6.80116 7.32819 6.61039 7.46885 6.46974C7.6095 6.32909 7.80026 6.25007 7.99918 6.25007C8.19809 6.25007 8.38885 6.32909 8.52951 6.46974C8.67016 6.61039 8.74918 6.80116 8.74918 7.00007V17.1901Z" fill="#ACACAC"/>
</svg>
