<svg width="24" height="24" viewBox="0 0 24 24" fill="none" xmlns="http://www.w3.org/2000/svg">
<path d="M10.7683 18.3002C9.27899 18.3002 7.82314 17.8586 6.58484 17.0312C5.34654 16.2038 4.3814 15.0278 3.81147 13.6518C3.24154 12.2759 3.09242 10.7619 3.38297 9.30121C3.67352 7.84053 4.39068 6.49881 5.44377 5.44572C6.49686 4.39263 7.83858 3.67547 9.29925 3.38492C10.7599 3.09438 12.274 3.2435 13.6499 3.81342C15.0258 4.38335 16.2018 5.34849 17.0293 6.58679C17.8567 7.8251 18.2983 9.28094 18.2983 10.7702C18.2983 11.7591 18.1035 12.7383 17.7251 13.6518C17.3467 14.5654 16.792 15.3955 16.0928 16.0948C15.3936 16.794 14.5635 17.3486 13.6499 17.727C12.7363 18.1055 11.7571 18.3002 10.7683 18.3002ZM10.7683 4.75024C9.5816 4.75024 8.42156 5.10213 7.43486 5.76142C6.44817 6.42071 5.67913 7.35778 5.22501 8.45414C4.77088 9.55049 4.65206 10.7569 4.88357 11.9208C5.11508 13.0847 5.68653 14.1538 6.52564 14.9929C7.36476 15.832 8.43386 16.4034 9.59774 16.6349C10.7616 16.8665 11.968 16.7476 13.0644 16.2935C14.1607 15.8394 15.0978 15.0704 15.7571 14.0837C16.4164 13.097 16.7683 11.9369 16.7683 10.7502C16.7683 9.15894 16.1361 7.63282 15.0109 6.5076C13.8857 5.38238 12.3596 4.75024 10.7683 4.75024Z" fill="#1C77FB"/>
<path d="M20.0019 20.75C19.9034 20.7504 19.8057 20.7312 19.7147 20.6934C19.6237 20.6557 19.5412 20.6001 19.4719 20.53L15.3419 16.4C15.2094 16.2578 15.1373 16.0697 15.1407 15.8754C15.1442 15.6811 15.2229 15.4958 15.3603 15.3583C15.4977 15.2209 15.6831 15.1422 15.8774 15.1388C16.0717 15.1354 16.2597 15.2075 16.4019 15.34L20.5319 19.47C20.6724 19.6106 20.7513 19.8012 20.7513 20C20.7513 20.1987 20.6724 20.3893 20.5319 20.53C20.4627 20.6001 20.3801 20.6557 20.2891 20.6934C20.1981 20.7312 20.1005 20.7504 20.0019 20.75Z" fill="#1C77FB"/>
</svg>
