<svg width="24" height="24" viewBox="0 0 24 24" fill="none" xmlns="http://www.w3.org/2000/svg">
<path d="M10.7683 18.3C9.27899 18.3 7.82314 17.8584 6.58484 17.031C5.34654 16.2036 4.3814 15.0275 3.81147 13.6516C3.24154 12.2757 3.09242 10.7616 3.38297 9.30096C3.67352 7.84029 4.39068 6.49857 5.44377 5.44548C6.49686 4.39239 7.83858 3.67523 9.29925 3.38468C10.7599 3.09413 12.274 3.24325 13.6499 3.81318C15.0258 4.38311 16.2018 5.34825 17.0293 6.58655C17.8567 7.82485 18.2983 9.2807 18.2983 10.77C18.2983 11.7588 18.1035 12.738 17.7251 13.6516C17.3467 14.5652 16.792 15.3953 16.0928 16.0945C15.3936 16.7937 14.5635 17.3484 13.6499 17.7268C12.7363 18.1052 11.7571 18.3 10.7683 18.3ZM10.7683 4.74999C9.5816 4.74999 8.42156 5.10189 7.43486 5.76118C6.44817 6.42046 5.67913 7.35754 5.22501 8.45389C4.77088 9.55025 4.65206 10.7566 4.88357 11.9205C5.11508 13.0844 5.68653 14.1535 6.52564 14.9926C7.36476 15.8317 8.43386 16.4032 9.59774 16.6347C10.7616 16.8662 11.968 16.7474 13.0644 16.2933C14.1607 15.8391 15.0978 15.0701 15.7571 14.0834C16.4164 13.0967 16.7683 11.9367 16.7683 10.75C16.7683 9.15869 16.1361 7.63257 15.0109 6.50735C13.8857 5.38213 12.3596 4.74999 10.7683 4.74999Z" fill="#034A30"/>
<path d="M20.0019 20.75C19.9034 20.7504 19.8057 20.7312 19.7147 20.6934C19.6237 20.6557 19.5412 20.6001 19.4719 20.53L15.3419 16.4C15.2094 16.2578 15.1373 16.0697 15.1407 15.8754C15.1442 15.6811 15.2229 15.4958 15.3603 15.3583C15.4977 15.2209 15.6831 15.1422 15.8774 15.1388C16.0717 15.1354 16.2597 15.2075 16.4019 15.34L20.5319 19.47C20.6724 19.6106 20.7513 19.8012 20.7513 20C20.7513 20.1987 20.6724 20.3893 20.5319 20.53C20.4627 20.6001 20.3801 20.6557 20.2891 20.6934C20.1981 20.7312 20.1005 20.7504 20.0019 20.75Z" fill="#034A30"/>
</svg>
