<svg width="20" height="20" viewBox="0 0 20 20" fill="none" xmlns="http://www.w3.org/2000/svg">
<path d="M10.4274 2.21198C10.3093 2.10704 10.1568 2.04907 9.99887 2.04907C9.84091 2.04907 9.68844 2.10704 9.57037 2.21198C8.77853 2.91431 8.19669 3.82223 7.88938 4.83507C7.58207 5.8479 7.5613 6.92606 7.82937 7.94998C6.56025 7.20016 5.08922 6.86394 3.62037 6.98798C3.53319 6.99515 3.44828 7.01951 3.37055 7.05964C3.29282 7.09977 3.2238 7.15489 3.16747 7.22182C3.11114 7.28874 3.06861 7.36616 3.04234 7.4496C3.01606 7.53304 3.00655 7.62085 3.01437 7.70798C3.13837 9.07298 3.77837 10.428 4.66537 11.478C4.31727 11.4553 3.96797 11.4586 3.62037 11.488C3.53319 11.4952 3.44828 11.5195 3.37055 11.5596C3.29282 11.5998 3.2238 11.6549 3.16747 11.7218C3.11114 11.7887 3.06861 11.8662 3.04234 11.9496C3.01606 12.033 3.00655 12.1209 3.01437 12.208C3.15857 13.7907 3.88919 15.2623 5.06277 16.3339C6.23635 17.4056 7.76813 17.9998 9.35737 18H10.6404C12.2293 17.9996 13.7607 17.4054 14.934 16.334C16.1074 15.2626 16.8379 13.7913 16.9824 12.209C16.9903 12.1218 16.9809 12.0339 16.9547 11.9503C16.9285 11.8667 16.886 11.7892 16.8296 11.7222C16.7733 11.6551 16.7042 11.5999 16.6264 11.5597C16.5486 11.5195 16.4636 11.4951 16.3764 11.488C16.0288 11.4586 15.6795 11.4553 15.3314 11.478C16.2184 10.428 16.8584 9.07298 16.9814 7.70798C16.9891 7.62095 16.9795 7.53327 16.9532 7.44994C16.927 7.36662 16.8845 7.2893 16.8283 7.22242C16.7721 7.15553 16.7032 7.10039 16.6257 7.06016C16.5481 7.01993 16.4634 6.9954 16.3764 6.98798C14.9079 6.86415 13.4372 7.20036 12.1684 7.94998C12.4366 6.92615 12.4159 5.84805 12.1088 4.83522C11.8017 3.82239 11.219 2.91442 10.4274 2.21198ZM9.99937 14.428C9.14409 13.2416 7.94554 12.346 6.56537 11.862L6.53037 11.836C5.32937 11.02 4.31337 9.49998 4.05637 7.96598C5.56156 7.92668 7.02841 8.44364 8.17637 9.41798C8.93537 10.061 9.14437 10.648 9.33137 11.176C9.39937 11.366 9.46437 11.549 9.55137 11.723C9.59284 11.8062 9.65668 11.8762 9.73573 11.9251C9.81478 11.974 9.9059 11.9999 9.99887 11.9999C10.0918 11.9999 10.183 11.974 10.262 11.9251C10.3411 11.8762 10.4049 11.8062 10.4464 11.723C10.5334 11.549 10.5984 11.366 10.6664 11.175C10.8534 10.649 11.0624 10.061 11.8224 9.41798C12.9699 8.44351 14.4364 7.9262 15.9414 7.96498C15.6844 9.49998 14.6684 11.019 13.4674 11.836L13.4324 11.862C12.0526 12.3461 10.8544 13.2417 9.99937 14.428ZM9.35737 17C8.07817 16.9996 6.84112 16.5425 5.86893 15.7112C4.89675 14.8798 4.25328 13.7286 4.05437 12.465C5.17116 12.4363 6.27455 12.7134 7.24531 13.2663C8.21607 13.8192 9.01728 14.6268 9.56237 15.602C9.60576 15.6796 9.66909 15.7443 9.74582 15.7894C9.82255 15.8344 9.9099 15.8581 9.99887 15.8581C10.0878 15.8581 10.1752 15.8344 10.2519 15.7894C10.3287 15.7443 10.392 15.6796 10.4354 15.602C10.9805 14.6268 11.7817 13.8192 12.7524 13.2663C13.7232 12.7134 14.8266 12.4363 15.9434 12.465C15.7444 13.7288 15.1008 14.8801 14.1284 15.7115C13.156 16.5429 11.9187 16.9998 10.6394 17H9.35737ZM9.99837 9.81598C9.13077 8.93007 8.64488 7.73946 8.64488 6.49948C8.64488 5.2595 9.13077 4.06889 9.99837 3.18298C10.866 4.06889 11.3519 5.2595 11.3519 6.49948C11.3519 7.73946 10.866 8.93007 9.99837 9.81598Z" fill="#414141"/>
</svg>
