<svg width="16" height="16" viewBox="0 0 16 16" fill="none" xmlns="http://www.w3.org/2000/svg">
<path fill-rule="evenodd" clip-rule="evenodd" d="M8.47221 10.4714C8.34719 10.5963 8.17766 10.6665 8.00088 10.6665C7.8241 10.6665 7.65456 10.5963 7.52955 10.4714L3.75821 6.70003C3.69454 6.63853 3.64375 6.56496 3.60881 6.48363C3.57387 6.40229 3.55548 6.31481 3.55471 6.22629C3.55394 6.13777 3.57081 6.04999 3.60433 5.96806C3.63785 5.88613 3.68735 5.81169 3.74995 5.7491C3.81254 5.6865 3.88698 5.637 3.96891 5.60348C4.05084 5.56996 4.13863 5.55309 4.22715 5.55386C4.31567 5.55463 4.40315 5.57302 4.48448 5.60796C4.56582 5.6429 4.63938 5.69368 4.70088 5.75736L8.00088 9.05736L11.3009 5.75736C11.4266 5.63592 11.595 5.56872 11.7698 5.57024C11.9446 5.57176 12.1118 5.64187 12.2354 5.76548C12.359 5.88908 12.4291 6.05629 12.4307 6.23109C12.4322 6.40589 12.365 6.57429 12.2435 6.70003L8.47221 10.4714Z" fill="white"/>
</svg>
