<svg width="20" height="20" viewBox="0 0 20 20" fill="none" xmlns="http://www.w3.org/2000/svg">
<path d="M14.5328 7.77489H13.6161V5.33322C13.6161 4.37402 13.2351 3.45411 12.5568 2.77585C11.8786 2.09759 10.9587 1.71655 9.99948 1.71655C9.04028 1.71655 8.12037 2.09759 7.44211 2.77585C6.76385 3.45411 6.38281 4.37402 6.38281 5.33322V7.77489H5.46615C4.91361 7.77489 4.38371 7.99438 3.99301 8.38508C3.60231 8.77578 3.38281 9.30569 3.38281 9.85822V16.1999C3.38435 16.7519 3.60434 17.281 3.99471 17.6713C4.38507 18.0617 4.91408 18.2817 5.46615 18.2832H14.5328C15.0849 18.2817 15.6139 18.0617 16.0043 17.6713C16.3946 17.281 16.6146 16.7519 16.6161 16.1999V9.85822C16.6161 9.30569 16.3967 8.77578 16.006 8.38508C15.6153 7.99438 15.0853 7.77489 14.5328 7.77489ZM7.21615 5.33322C7.21615 4.59503 7.50939 3.88708 8.03137 3.36511C8.55334 2.84313 9.26129 2.54989 9.99948 2.54989C10.7377 2.54989 11.4456 2.84313 11.9676 3.36511C12.4896 3.88708 12.7828 4.59503 12.7828 5.33322V7.77489H7.21615V5.33322ZM15.7828 16.1999C15.7806 16.5307 15.6482 16.8474 15.4143 17.0814C15.1803 17.3153 14.8637 17.4477 14.5328 17.4499H5.46615C5.1353 17.4477 4.81862 17.3153 4.58468 17.0814C4.35073 16.8474 4.21833 16.5307 4.21615 16.1999V9.85822C4.21615 9.5267 4.34784 9.20876 4.58226 8.97434C4.81668 8.73991 5.13463 8.60822 5.46615 8.60822H14.5328C14.8643 8.60822 15.1823 8.73991 15.4167 8.97434C15.6511 9.20876 15.7828 9.5267 15.7828 9.85822V16.1999Z" fill="#414141"/>
<path d="M10.8346 12.4583C10.8355 12.6041 10.7973 12.7474 10.724 12.8735C10.6507 12.9995 10.5451 13.1036 10.418 13.175V14.425C10.418 14.5355 10.3741 14.6415 10.2959 14.7196C10.2178 14.7978 10.1118 14.8417 10.0013 14.8417C9.89081 14.8417 9.78483 14.7978 9.70669 14.7196C9.62855 14.6415 9.58465 14.5355 9.58465 14.425V13.175C9.45756 13.1036 9.35189 12.9995 9.27862 12.8735C9.20535 12.7474 9.16715 12.6041 9.16798 12.4583C9.16798 12.2373 9.25578 12.0254 9.41206 11.8691C9.56834 11.7128 9.7803 11.625 10.0013 11.625C10.2223 11.625 10.4343 11.7128 10.5906 11.8691C10.7469 12.0254 10.8346 12.2373 10.8346 12.4583Z" fill="black"/>
</svg>
