<svg width="20" height="20" viewBox="0 0 20 20" fill="none" xmlns="http://www.w3.org/2000/svg">
<path d="M4.6787 16.6666C4.29481 16.6666 3.97453 16.5383 3.71786 16.2816C3.4612 16.0249 3.33259 15.7044 3.33203 15.3199V4.67992C3.33203 4.29603 3.46064 3.97575 3.71786 3.71909C3.97509 3.46242 4.29536 3.33381 4.6787 3.33325H9.59786C9.71675 3.33325 9.81592 3.37297 9.89536 3.45242C9.97481 3.53186 10.0145 3.63103 10.0145 3.74992C10.0145 3.86881 9.97481 3.96797 9.89536 4.04742C9.81592 4.12686 9.71675 4.16659 9.59786 4.16659H4.6787C4.55036 4.16659 4.43259 4.21992 4.32536 4.32659C4.21814 4.43325 4.16481 4.55103 4.16536 4.67992V15.3208C4.16536 15.4485 4.2187 15.566 4.32536 15.6733C4.43203 15.7805 4.54953 15.8338 4.67786 15.8333H9.59786C9.71675 15.8333 9.81592 15.873 9.89536 15.9524C9.97481 16.0319 10.0145 16.131 10.0145 16.2499C10.0145 16.3688 9.97481 16.468 9.89536 16.5474C9.81592 16.6269 9.71675 16.6666 9.59786 16.6666H4.6787ZM15.0487 10.4166H8.07536C7.95703 10.4166 7.85814 10.3769 7.7787 10.2974C7.69925 10.218 7.65925 10.1188 7.6587 9.99992C7.65814 9.88103 7.69786 9.78186 7.77786 9.70242C7.85786 9.62297 7.95703 9.58325 8.07536 9.58325H15.0487L13.4062 7.94075C13.3279 7.86297 13.2862 7.76908 13.2812 7.65909C13.2756 7.54853 13.3173 7.44742 13.4062 7.35575C13.4945 7.26408 13.5926 7.21742 13.7004 7.21575C13.8087 7.21409 13.9087 7.25909 14.0004 7.35075L16.1787 9.52825C16.3131 9.66325 16.3804 9.82047 16.3804 9.99992C16.3804 10.1794 16.3129 10.3366 16.1779 10.4716L14.0004 12.6491C13.9193 12.7302 13.8229 12.7727 13.7112 12.7766C13.5995 12.7805 13.4979 12.7363 13.4062 12.6441C13.3173 12.5524 13.2737 12.4533 13.2754 12.3466C13.277 12.2399 13.322 12.1427 13.4104 12.0549L15.0487 10.4166Z" fill="#414141"/>
</svg>
