<svg width="20" height="20" viewBox="0 0 20 20" fill="none" xmlns="http://www.w3.org/2000/svg">
<path d="M4.99902 13.8334C5.6394 13.8336 6.16504 14.36 6.16504 15.0004C6.16486 15.6406 5.63929 16.1662 4.99902 16.1664C4.35861 16.1664 3.83221 15.6407 3.83203 15.0004C3.83203 14.3598 4.3585 13.8334 4.99902 13.8334ZM9.99902 13.8334C10.6394 13.8336 11.165 14.36 11.165 15.0004C11.1649 15.6406 10.6393 16.1662 9.99902 16.1664C9.35861 16.1664 8.83221 15.6407 8.83203 15.0004C8.83203 14.3598 9.3585 13.8334 9.99902 13.8334ZM14.999 13.8334C15.6394 13.8336 16.165 14.36 16.165 15.0004C16.1649 15.6406 15.6393 16.1662 14.999 16.1664C14.3586 16.1664 13.8322 15.6407 13.832 15.0004C13.832 14.3598 14.3585 13.8334 14.999 13.8334ZM7.49902 8.83337C8.1394 8.83355 8.66504 9.35995 8.66504 10.0004C8.66486 10.6406 8.13929 11.1662 7.49902 11.1664C6.85861 11.1664 6.33221 10.6407 6.33203 10.0004C6.33203 9.35984 6.8585 8.83337 7.49902 8.83337ZM12.499 8.83337C13.1394 8.83355 13.665 9.35995 13.665 10.0004C13.6649 10.6406 13.1393 11.1662 12.499 11.1664C11.8586 11.1664 11.3322 10.6407 11.332 10.0004C11.332 9.35984 11.8585 8.83337 12.499 8.83337ZM9.99902 3.83337C10.6394 3.83355 11.165 4.35995 11.165 5.00037C11.1649 5.64063 10.6393 6.1662 9.99902 6.16638C9.35861 6.16638 8.83221 5.64074 8.83203 5.00037C8.83203 4.35984 9.3585 3.83337 9.99902 3.83337Z" fill="black" stroke="black"/>
</svg>
