<svg width="24" height="24" viewBox="0 0 24 24" fill="none" xmlns="http://www.w3.org/2000/svg">
<path d="M12.7761 4.88879L17.1861 9.28679M3.78906 21.2498H20.2091M4.14306 16.7348L4.63606 13.3098C4.66259 13.086 4.76618 12.8785 4.92906 12.7228L14.5941 3.05879C14.7183 2.93211 14.8732 2.83967 15.0436 2.79044C15.2141 2.74121 15.3944 2.73685 15.5671 2.77779C16.4588 3.01451 17.2696 3.48868 17.9131 4.14979C18.5786 4.79185 19.0569 5.60278 19.2971 6.49579C19.3341 6.66865 19.3277 6.84798 19.2785 7.01778C19.2293 7.18757 19.1388 7.34252 19.0151 7.46879L9.35106 17.1328C9.18444 17.2867 8.97668 17.3888 8.75306 17.4268L5.31606 17.9188C5.15596 17.9404 4.99303 17.9246 4.84009 17.8726C4.68714 17.8205 4.54836 17.7337 4.43466 17.6189C4.32096 17.5042 4.23545 17.3646 4.18485 17.2112C4.13425 17.0578 4.11994 16.8947 4.14306 16.7348Z" stroke="#1C77FB" stroke-width="1.5" stroke-linecap="round" stroke-linejoin="round"/>
</svg>
