<svg width="20" height="20" viewBox="0 0 20 20" fill="none" xmlns="http://www.w3.org/2000/svg">
<path d="M7.06479 13.3167V12.4833H8.47729C8.44007 12.6222 8.4109 12.7586 8.38979 12.8925C8.36924 13.0258 8.35674 13.1675 8.35229 13.3175L7.06479 13.3167ZM6.95396 17.5C5.95229 17.5 5.09812 17.1553 4.39146 16.4658C3.68479 15.7764 3.33146 14.935 3.33146 13.9417V6.37833H1.95312V2.5H11.9531V6.37833H10.559V9.4925C10.4284 9.58306 10.307 9.67917 10.1948 9.78083C10.0826 9.8825 9.9759 9.99306 9.87479 10.1125H7.06563V9.27917H9.72563V6.37833H4.16479V13.9425C4.16479 14.7114 4.4359 15.3578 4.97813 15.8817C5.52035 16.4056 6.17868 16.6672 6.95312 16.6667C7.31646 16.6667 7.65507 16.6031 7.96896 16.4758C8.28229 16.3486 8.56229 16.1736 8.80896 15.9508C8.86674 16.0897 8.93035 16.2172 8.99979 16.3333C9.06924 16.4494 9.14785 16.5669 9.23563 16.6858C8.92451 16.9403 8.57674 17.1394 8.19229 17.2833C7.80785 17.4278 7.39479 17.5 6.95312 17.5M2.78646 5.545H11.1198V3.33333H2.78646V5.545ZM13.4756 16.09C14.1234 16.09 14.6753 15.8617 15.1315 15.405C15.587 14.9494 15.8148 14.3978 15.8148 13.75C15.8148 13.1022 15.587 12.5506 15.1315 12.095C14.6753 11.6383 14.1234 11.41 13.4756 11.41C12.8284 11.41 12.2767 11.6383 11.8206 12.095C11.3645 12.5506 11.1365 13.1022 11.1365 13.75C11.1365 14.3978 11.3642 14.9497 11.8198 15.4058C12.2753 15.8619 12.8273 16.0897 13.4756 16.0892M17.7256 18.5742L15.4115 16.26C15.1276 16.4756 14.8223 16.64 14.4956 16.7533C14.1695 16.8667 13.8295 16.9233 13.4756 16.9233C12.5945 16.9233 11.8453 16.6147 11.2281 15.9975C10.6109 15.3803 10.3026 14.6311 10.3031 13.75C10.3037 12.8689 10.612 12.1197 11.2281 11.5025C11.8442 10.8853 12.5934 10.5769 13.4756 10.5775C14.3578 10.5781 15.107 10.8864 15.7231 11.5025C16.3392 12.1186 16.6476 12.8678 16.6481 13.75C16.6481 14.1039 16.5917 14.4439 16.479 14.77C16.3656 15.0967 16.2012 15.4019 15.9856 15.6858L18.2998 18L17.7256 18.5742Z" fill="#414141"/>
</svg>
