<svg width="20" height="20" viewBox="0 0 20 20" fill="none" xmlns="http://www.w3.org/2000/svg">
<path d="M10.833 16.6667C11.0541 16.6667 11.266 16.7545 11.4223 16.9108C11.5786 17.0671 11.6664 17.2791 11.6664 17.5001C11.6664 17.7211 11.5786 17.933 11.4223 18.0893C11.266 18.2456 11.0541 18.3334 10.833 18.3334C10.612 18.3334 10.4001 18.2456 10.2438 18.0893C10.0875 17.933 9.9997 17.7211 9.9997 17.5001C9.9997 17.2791 10.0875 17.0671 10.2438 16.9108C10.4001 16.7545 10.612 16.6667 10.833 16.6667ZM7.91637 15.8334C8.13738 15.8334 8.34935 15.9212 8.50563 16.0775C8.66191 16.2338 8.7497 16.4457 8.7497 16.6667C8.7497 16.8877 8.66191 17.0997 8.50563 17.256C8.34935 17.4123 8.13738 17.5001 7.91637 17.5001C7.69536 17.5001 7.4834 17.4123 7.32712 17.256C7.17083 17.0997 7.08304 16.8877 7.08304 16.6667C7.08304 16.4457 7.17083 16.2338 7.32712 16.0775C7.4834 15.9212 7.69536 15.8334 7.91637 15.8334ZM13.7497 15.8334C13.9707 15.8334 14.1827 15.9212 14.339 16.0775C14.4952 16.2338 14.583 16.4457 14.583 16.6667C14.583 16.8877 14.4952 17.0997 14.339 17.256C14.1827 17.4123 13.9707 17.5001 13.7497 17.5001C13.5287 17.5001 13.3167 17.4123 13.1604 17.256C13.0042 17.0997 12.9164 16.8877 12.9164 16.6667C12.9164 16.4457 13.0042 16.2338 13.1604 16.0775C13.3167 15.9212 13.5287 15.8334 13.7497 15.8334ZM10.8347 5.00757C13.4747 5.00757 14.973 6.75507 15.1905 8.8659H15.2572C15.6608 8.86535 16.0605 8.94431 16.4335 9.09826C16.8065 9.25222 17.1456 9.47815 17.4313 9.76316C17.717 10.0482 17.9438 10.3867 18.0986 10.7593C18.2535 11.132 18.3334 11.5315 18.3339 11.9351C18.3333 12.3386 18.2533 12.738 18.0984 13.1105C17.9435 13.4831 17.7167 13.8215 17.431 14.1064C17.1453 14.3914 16.8063 14.6172 16.4333 14.7711C16.0603 14.925 15.6607 15.0039 15.2572 15.0034H6.41137C6.00788 15.0039 5.60824 14.925 5.23526 14.7711C4.86228 14.6172 4.52326 14.3914 4.23756 14.1064C3.95187 13.8215 3.72509 13.4831 3.57018 13.1105C3.41526 12.738 3.33525 12.3386 3.3347 11.9351C3.33514 11.5315 3.41507 11.132 3.56994 10.7593C3.7248 10.3867 3.95156 10.0482 4.23727 9.76316C4.52297 9.47815 4.86203 9.25222 5.23507 9.09826C5.6081 8.94431 6.00781 8.86535 6.41137 8.8659H6.47804C6.6972 6.7409 8.1947 5.00757 10.8347 5.00757ZM3.63887 8.47007C3.69682 8.60963 3.70224 8.76546 3.65413 8.90871C3.60603 9.05197 3.50764 9.17294 3.3772 9.24923L3.30137 9.28673L2.52887 9.60673C2.38274 9.66629 2.21949 9.66837 2.07189 9.61256C1.92429 9.55674 1.80327 9.44715 1.73312 9.3058C1.66297 9.16445 1.64889 9.00179 1.6937 8.85048C1.73851 8.69918 1.83889 8.57042 1.9747 8.49007L2.05054 8.45173L2.82304 8.13173C2.89887 8.10032 2.98016 8.08415 3.06224 8.08415C3.14433 8.08415 3.22561 8.10032 3.30145 8.13174C3.37729 8.16316 3.44619 8.20921 3.50423 8.26726C3.56227 8.32531 3.60747 8.39422 3.63887 8.47007ZM9.04554 4.44257L8.90304 4.4909C7.41554 5.0159 6.35054 6.16173 5.89054 7.67673L5.8322 7.88507L5.78304 8.0834L5.61137 8.1159C5.11255 8.21977 4.63944 8.42205 4.2197 8.7109C3.83776 8.05442 3.69509 7.28588 3.81598 6.53606C3.93687 5.78624 4.31384 5.10148 4.88274 4.5983C5.45164 4.09511 6.17733 3.80461 6.9363 3.77622C7.69527 3.74782 8.44063 3.9833 9.04554 4.44257ZM2.45137 4.4684L2.53887 4.49757L3.31054 4.81757C3.45526 4.87857 3.5717 4.99183 3.63671 5.13479C3.70171 5.27776 3.71051 5.43996 3.66135 5.58912C3.61219 5.73828 3.50868 5.86347 3.37141 5.93977C3.23414 6.01607 3.07317 6.03789 2.92054 6.0009L2.8322 5.97257L2.06054 5.65257C1.91543 5.59174 1.79861 5.47843 1.73339 5.33524C1.66817 5.19206 1.65935 5.02955 1.70869 4.88015C1.75803 4.73075 1.86191 4.60546 1.99958 4.52929C2.13725 4.45312 2.29858 4.43084 2.45137 4.4684ZM5.63054 1.9809L5.66804 2.05673L5.98804 2.8284C6.04846 2.97466 6.05116 3.13839 5.99557 3.28656C5.93999 3.43473 5.83027 3.5563 5.68856 3.62673C5.54685 3.69716 5.3837 3.71122 5.23203 3.66605C5.08036 3.62089 4.95147 3.51988 4.87137 3.3834L4.83304 3.30673L4.51304 2.53507C4.45348 2.38894 4.4514 2.22569 4.50721 2.07809C4.56303 1.93049 4.67262 1.80946 4.81397 1.73932C4.95532 1.66917 5.11798 1.65508 5.26929 1.69989C5.42059 1.7447 5.55018 1.84509 5.63054 1.9809ZM9.2572 1.71507C9.39572 1.77234 9.50903 1.87749 9.57649 2.01134C9.64395 2.14519 9.66106 2.29882 9.6247 2.44423L9.59554 2.53173L9.27637 3.3034C9.21626 3.44946 9.10307 3.56734 8.95958 3.63334C8.81608 3.69935 8.65292 3.70857 8.5029 3.65916C8.35288 3.60975 8.22713 3.50538 8.15093 3.36702C8.07474 3.22867 8.05376 3.0666 8.0922 2.9134L8.12137 2.82507L8.44054 2.0534C8.47194 1.97756 8.51797 1.90864 8.57601 1.85059C8.63405 1.79254 8.70295 1.74649 8.77879 1.71507C8.85463 1.68365 8.93591 1.66748 9.018 1.66748C9.10008 1.66748 9.18137 1.68365 9.2572 1.71507Z" fill="#093832"/>
</svg>
