<svg width="20" height="20" viewBox="0 0 20 20" fill="none" xmlns="http://www.w3.org/2000/svg">
<mask id="path-1-inside-1_795_2346" fill="white">
<path d="M7.8525 17.4749C6.30806 17.3549 5.02972 16.7352 4.0175 15.6158C3.00583 14.4958 2.5 13.1238 2.5 11.4999C2.5 10.3033 2.98278 8.97965 3.94833 7.52909C4.91389 6.07854 6.37556 4.4877 8.33333 2.75659C10.2383 4.44548 11.6733 5.99631 12.6383 7.40909C13.6033 8.82187 14.1128 10.1216 14.1667 11.3083V11.3466H13.3333V11.3083C13.28 10.3049 12.8358 9.18048 12.0008 7.93493C11.1658 6.68937 9.94333 5.33604 8.33333 3.87493C6.68056 5.38881 5.43417 6.78465 4.59417 8.06243C3.75417 9.3402 3.33389 10.486 3.33333 11.4999C3.33333 12.911 3.75694 14.0899 4.60417 15.0366C5.45139 15.9833 6.53417 16.5166 7.8525 16.6366V17.4749ZM9.51917 17.4999V13.0133H12.4358C12.6414 13.0133 12.8156 13.0899 12.9583 13.2433C13.1017 13.3971 13.1733 13.5769 13.1733 13.7824V15.1599C13.1733 15.3655 13.1017 15.5396 12.9583 15.6824C12.815 15.8252 12.6408 15.8969 12.4358 15.8974H10.2567V17.4999H9.51917ZM14.5833 17.4999V13.0133H15.3208V14.6799H17.5V13.0133H18.2375V17.4999H17.5V15.4166H15.32V17.4999H14.5833ZM10.2567 15.1599H12.4358V13.7499H10.2567V15.1599Z"/>
</mask>
<path d="M7.8525 17.4749L7.77504 18.4719L8.8525 18.5556V17.4749H7.8525ZM4.0175 15.6158L3.27542 16.2861L3.27576 16.2864L4.0175 15.6158ZM8.33333 2.75659L8.99672 2.00832L8.33421 1.42096L7.67092 2.00745L8.33333 2.75659ZM14.1667 11.3083H15.1667V11.2856L15.1656 11.2629L14.1667 11.3083ZM14.1667 11.3466V12.3466H15.1667V11.3466H14.1667ZM13.3333 11.3466H12.3333V12.3466H13.3333V11.3466ZM13.3333 11.3083H14.3333V11.2817L14.3319 11.2552L13.3333 11.3083ZM8.33333 3.87493L9.00537 3.13441L8.33021 2.52169L7.65789 3.13751L8.33333 3.87493ZM3.33333 11.4999L2.33333 11.4994V11.4999H3.33333ZM7.8525 16.6366H8.8525V15.7235L7.94315 15.6407L7.8525 16.6366ZM9.51917 17.4999H8.51917V18.4999H9.51917V17.4999ZM9.51917 13.0133V12.0133H8.51917V13.0133H9.51917ZM12.9583 13.2433L12.2265 13.9247L12.2266 13.9248L12.9583 13.2433ZM12.4358 15.8974V16.8974L12.4385 16.8974L12.4358 15.8974ZM10.2567 15.8974V14.8974H9.25667V15.8974H10.2567ZM10.2567 17.4999V18.4999H11.2567V17.4999H10.2567ZM14.5833 17.4999H13.5833V18.4999H14.5833V17.4999ZM14.5833 13.0133V12.0133H13.5833V13.0133H14.5833ZM15.3208 13.0133H16.3208V12.0133H15.3208V13.0133ZM15.3208 14.6799H14.3208V15.6799H15.3208V14.6799ZM17.5 14.6799V15.6799H18.5V14.6799H17.5ZM17.5 13.0133V12.0133H16.5V13.0133H17.5ZM18.2375 13.0133H19.2375V12.0133H18.2375V13.0133ZM18.2375 17.4999V18.4999H19.2375V17.4999H18.2375ZM17.5 17.4999H16.5V18.4999H17.5V17.4999ZM17.5 15.4166H18.5V14.4166H17.5V15.4166ZM15.32 15.4166V14.4166H14.32V15.4166H15.32ZM15.32 17.4999V18.4999H16.32V17.4999H15.32ZM10.2567 15.1599H9.25667V16.1599H10.2567V15.1599ZM12.4358 15.1599V16.1599H13.4358V15.1599H12.4358ZM12.4358 13.7499H13.4358V12.7499H12.4358V13.7499ZM10.2567 13.7499V12.7499H9.25667V13.7499H10.2567ZM7.8525 17.4749L7.92996 16.4779C6.63305 16.3772 5.59495 15.8693 4.75924 14.9451L4.0175 15.6158L3.27576 16.2864C4.4645 17.6011 5.98307 18.3327 7.77504 18.4719L7.8525 17.4749ZM4.0175 15.6158L4.75958 14.9455C3.92716 14.0239 3.5 12.8966 3.5 11.4999H2.5H1.5C1.5 13.351 2.08451 14.9676 3.27542 16.2861L4.0175 15.6158ZM2.5 11.4999H3.5C3.5 10.5713 3.87719 9.44066 4.78078 8.0832L3.94833 7.52909L3.11589 6.97498C2.08837 8.51863 1.5 10.0352 1.5 11.4999H2.5ZM3.94833 7.52909L4.78078 8.0832C5.68085 6.73102 7.07396 5.20502 8.99574 3.50573L8.33333 2.75659L7.67092 2.00745C5.67715 3.77039 4.14692 5.42606 3.11589 6.97498L3.94833 7.52909ZM8.33333 2.75659L7.66995 3.50487C9.54024 5.16299 10.9105 6.65247 11.8126 7.97312L12.6383 7.40909L13.4641 6.84506C12.4362 5.34015 10.9364 3.72797 8.99672 2.00832L8.33333 2.75659ZM12.6383 7.40909L11.8126 7.97312C12.7164 9.29637 13.1252 10.4171 13.1677 11.3536L14.1667 11.3083L15.1656 11.2629C15.1004 9.82607 14.4902 8.34737 13.4641 6.84506L12.6383 7.40909ZM14.1667 11.3083H13.1667V11.3466H14.1667H15.1667V11.3083H14.1667ZM14.1667 11.3466V10.3466H13.3333V11.3466V12.3466H14.1667V11.3466ZM13.3333 11.3466H14.3333V11.3083H13.3333H12.3333V11.3466H13.3333ZM13.3333 11.3083L14.3319 11.2552C14.2654 10.0042 13.7208 8.70478 12.8315 7.37809L12.0008 7.93493L11.1702 8.49176C11.9508 9.65618 12.2946 10.6056 12.3347 11.3613L13.3333 11.3083ZM12.0008 7.93493L12.8315 7.37809C11.936 6.04236 10.6511 4.62796 9.00537 3.13441L8.33333 3.87493L7.6613 4.61544C9.23555 6.04411 10.3957 7.33638 11.1702 8.49176L12.0008 7.93493ZM8.33333 3.87493L7.65789 3.13751C5.96964 4.68389 4.65968 6.14235 3.75856 7.5131L4.59417 8.06243L5.42978 8.61175C6.20866 7.42694 7.39147 6.09374 9.00878 4.61234L8.33333 3.87493ZM4.59417 8.06243L3.75856 7.5131C2.86232 8.87643 2.33404 10.2148 2.33333 11.4994L3.33333 11.4999L4.33333 11.5005C4.33374 10.7573 4.64602 9.80397 5.42978 8.61175L4.59417 8.06243ZM3.33333 11.4999H2.33333C2.33333 13.1278 2.8291 14.5527 3.85901 15.7035L4.60417 15.0366L5.34933 14.3697C4.68479 13.6272 4.33333 12.6943 4.33333 11.4999H3.33333ZM4.60417 15.0366L3.85901 15.7035C4.88259 16.8472 6.20326 17.4906 7.76185 17.6325L7.8525 16.6366L7.94315 15.6407C6.86507 15.5426 6.02019 15.1193 5.34933 14.3697L4.60417 15.0366ZM7.8525 16.6366H6.8525V17.4749H7.8525H8.8525V16.6366H7.8525ZM9.51917 17.4999H10.5192V13.0133H9.51917H8.51917V17.4999H9.51917ZM9.51917 13.0133V14.0133H12.4358V13.0133V12.0133H9.51917V13.0133ZM12.4358 13.0133V14.0133C12.4112 14.0133 12.3675 14.0079 12.3177 13.986C12.2684 13.9643 12.2383 13.9374 12.2265 13.9247L12.9583 13.2433L13.6902 12.5618C13.3624 12.2097 12.925 12.0133 12.4358 12.0133V13.0133ZM12.9583 13.2433L12.2266 13.9248C12.2212 13.9191 12.2046 13.8987 12.1907 13.8639C12.1767 13.8287 12.1733 13.7985 12.1733 13.7824H13.1733H14.1733C14.1733 13.3175 14.0014 12.8959 13.6901 12.5617L12.9583 13.2433ZM13.1733 13.7824H12.1733V15.1599H13.1733H14.1733V13.7824H13.1733ZM13.1733 15.1599H12.1733C12.1733 15.1442 12.1766 15.1084 12.1948 15.0642C12.2132 15.0196 12.2373 14.9892 12.2526 14.9739L12.9583 15.6824L13.6641 16.3909C13.9991 16.0571 14.1733 15.6266 14.1733 15.1599H13.1733ZM12.9583 15.6824L12.2526 14.9739C12.2671 14.9595 12.2964 14.9363 12.3397 14.9185C12.3827 14.9008 12.4175 14.8975 12.4331 14.8974L12.4358 15.8974L12.4385 16.8974C12.9032 16.8962 13.3312 16.7225 13.6641 16.3909L12.9583 15.6824ZM12.4358 15.8974V14.8974H10.2567V15.8974V16.8974H12.4358V15.8974ZM10.2567 15.8974H9.25667V17.4999H10.2567H11.2567V15.8974H10.2567ZM10.2567 17.4999V16.4999H9.51917V17.4999V18.4999H10.2567V17.4999ZM14.5833 17.4999H15.5833V13.0133H14.5833H13.5833V17.4999H14.5833ZM14.5833 13.0133V14.0133H15.3208V13.0133V12.0133H14.5833V13.0133ZM15.3208 13.0133H14.3208V14.6799H15.3208H16.3208V13.0133H15.3208ZM15.3208 14.6799V15.6799H17.5V14.6799V13.6799H15.3208V14.6799ZM17.5 14.6799H18.5V13.0133H17.5H16.5V14.6799H17.5ZM17.5 13.0133V14.0133H18.2375V13.0133V12.0133H17.5V13.0133ZM18.2375 13.0133H17.2375V17.4999H18.2375H19.2375V13.0133H18.2375ZM18.2375 17.4999V16.4999H17.5V17.4999V18.4999H18.2375V17.4999ZM17.5 17.4999H18.5V15.4166H17.5H16.5V17.4999H17.5ZM17.5 15.4166V14.4166H15.32V15.4166V16.4166H17.5V15.4166ZM15.32 15.4166H14.32V17.4999H15.32H16.32V15.4166H15.32ZM15.32 17.4999V16.4999H14.5833V17.4999V18.4999H15.32V17.4999ZM10.2567 15.1599V16.1599H12.4358V15.1599V14.1599H10.2567V15.1599ZM12.4358 15.1599H13.4358V13.7499H12.4358H11.4358V15.1599H12.4358ZM12.4358 13.7499V12.7499H10.2567V13.7499V14.7499H12.4358V13.7499ZM10.2567 13.7499H9.25667V15.1599H10.2567H11.2567V13.7499H10.2567Z" fill="#B1B1B1" mask="url(#path-1-inside-1_795_2346)"/>
</svg>
